<?xml version="1.0" standalone="no"?>
<!DOCTYPE svg PUBLIC "-//W3C//DTD SVG 20010904//EN"
 "http://www.w3.org/TR/2001/REC-SVG-20010904/DTD/svg10.dtd">
<svg version="1.0" xmlns="http://www.w3.org/2000/svg"
 width="1300.000000pt" height="1300.000000pt" viewBox="0 0 1300.000000 1300.000000"
 preserveAspectRatio="xMidYMid meet">
<metadata>
Created by potrace 1.11, written by Peter Selinger 2001-2013
</metadata>
<g transform="translate(0.000000,1300.000000) scale(0.100000,-0.100000)"
fill="#000000" stroke="none">
<path d="M12680 10225 c-41 -18 -289 -124 -550 -235 -261 -111 -488 -208 -505
-215 -16 -8 -178 -77 -360 -154 -181 -76 -454 -192 -605 -256 -151 -64 -374
-159 -495 -210 -121 -51 -312 -132 -425 -180 -113 -48 -232 -99 -265 -112 -77
-32 -74 -30 -226 -174 -72 -68 -139 -131 -149 -139 -10 -8 -75 -69 -144 -135
-143 -134 -133 -125 -316 -295 -74 -69 -168 -156 -209 -195 -40 -38 -79 -74
-85 -80 -6 -5 -76 -71 -156 -145 -79 -74 -173 -162 -208 -195 -36 -33 -81 -76
-102 -95 -20 -19 -93 -87 -161 -150 -178 -166 -217 -207 -229 -246 -15 -45
-37 -43 -50 4 -12 48 -29 63 -160 147 -144 93 -226 146 -355 230 -60 40 -272
177 -470 305 -198 128 -425 276 -504 327 -79 52 -158 101 -175 109 -17 7 -166
48 -331 90 -165 41 -340 86 -390 99 -115 30 -685 176 -705 180 -8 2 -58 15
-110 29 -139 36 -842 217 -860 221 -8 2 -121 30 -250 63 -129 34 -325 84 -435
112 -369 95 -549 141 -724 186 -96 25 -181 47 -190 49 -9 2 -70 17 -136 35
-66 17 -127 32 -135 34 -8 2 -78 20 -155 41 -77 20 -147 38 -155 40 -59 14
-184 46 -228 59 -49 13 -53 13 -62 -4 -8 -16 12 -30 163 -116 94 -54 181 -104
192 -110 11 -6 259 -147 550 -314 292 -166 544 -310 560 -319 168 -93 327
-187 342 -203 13 -14 17 -39 19 -101 2 -83 11 -286 20 -432 5 -89 12 -216 19
-375 2 -58 7 -145 10 -195 3 -49 7 -133 10 -185 3 -52 7 -133 9 -180 3 -47 8
-143 11 -215 3 -71 8 -168 10 -215 13 -239 17 -318 19 -350 1 -19 -3 -38 -8
-42 -8 -5 -8 -8 0 -8 7 0 12 -27 13 -67 2 -38 4 -90 6 -118 2 -27 6 -117 10
-200 8 -171 12 -254 19 -375 3 -47 8 -146 11 -220 4 -74 8 -158 9 -186 2 -28
7 -57 11 -64 6 -9 4 -11 -5 -5 -9 5 -11 4 -6 -4 13 -21 15 -102 2 -94 -6 4 -6
0 2 -9 7 -9 12 -29 10 -45 -1 -16 1 -34 5 -40 4 -6 3 -14 -3 -18 -6 -4 -7 -11
-3 -18 3 -6 8 -36 9 -66 2 -31 6 -67 9 -81 11 -40 12 -74 3 -87 -5 -6 -4 -14
2 -18 6 -4 9 -1 8 7 -2 7 3 12 11 10 12 -3 12 -1 1 13 -10 12 -11 18 -1 28 10
9 12 9 9 -2 -2 -7 3 -16 11 -19 9 -3 11 0 6 8 -6 9 -3 9 14 1 11 -7 21 -17 21
-23 0 -7 -4 -7 -14 1 -10 8 -16 9 -21 1 -3 -5 -4 -11 -1 -11 3 -1 9 -2 14 -3
4 -1 13 -5 21 -10 10 -6 12 -5 7 2 -4 7 -2 12 4 12 6 0 9 4 6 8 -11 18 34 9
51 -10 12 -14 13 -19 3 -13 -9 5 -8 -1 5 -16 11 -13 20 -25 20 -25 0 -1 7 5
15 14 13 14 12 15 -3 9 -12 -5 -16 -3 -11 5 4 7 3 8 -4 4 -8 -5 -10 -2 -6 8 3
9 10 16 16 16 5 0 7 -4 3 -9 -3 -5 4 -12 14 -16 14 -4 18 -11 14 -23 -6 -15
-4 -15 9 -4 13 10 22 11 37 2 12 -6 21 -8 21 -4 0 3 6 1 13 -5 8 -6 18 -7 22
-3 5 4 5 2 2 -4 -8 -14 17 -26 38 -18 8 4 15 1 15 -6 0 -6 -4 -9 -9 -5 -5 3
-12 1 -15 -4 -4 -5 -2 -12 4 -16 6 -4 8 -10 6 -14 -3 -4 0 -13 6 -21 8 -12 9
-12 4 3 -3 9 -1 17 3 17 5 0 17 3 27 7 13 5 15 3 8 -8 -15 -24 -13 -38 4 -32
11 5 13 3 7 -8 -5 -8 -5 -11 1 -6 5 5 9 14 9 20 0 5 6 12 14 15 10 3 12 -1 8
-14 -7 -18 -6 -18 8 0 17 22 51 31 60 16 4 -6 11 -8 16 -5 5 4 12 0 15 -9 3
-8 12 -12 20 -9 8 3 14 1 14 -5 0 -15 -30 -8 -41 9 -5 9 -9 10 -9 2 0 -6 5
-15 10 -18 6 -4 8 -11 5 -16 -4 -5 -1 -9 4 -9 6 0 11 5 11 11 0 5 4 8 9 4 5
-3 12 -1 16 4 7 12 35 3 35 -11 0 -6 -8 -4 -17 3 -11 9 -10 3 6 -19 12 -17 23
-32 25 -32 1 0 3 10 3 22 2 18 0 20 -7 8 -5 -8 -10 -10 -10 -5 0 6 4 16 9 23
6 11 10 10 15 -3 4 -11 13 -15 26 -12 11 3 23 1 26 -4 3 -5 10 -7 15 -4 5 3 6
0 3 -8 -3 -8 0 -18 5 -22 6 -3 9 -11 6 -16 -10 -15 2 -10 16 8 8 10 9 14 2 10
-6 -4 -14 -3 -17 2 -4 5 -2 12 3 15 5 4 13 2 16 -4 5 -8 12 -7 23 2 9 7 6 -2
-7 -20 -16 -23 -20 -37 -13 -44 6 -6 12 -6 17 3 5 8 4 10 -3 5 -7 -4 -12 -3
-12 3 0 17 14 20 32 7 10 -7 14 -17 11 -22 -4 -5 -1 -4 6 3 12 10 19 8 37 -12
13 -14 29 -25 36 -24 10 0 10 2 0 6 -6 2 -9 9 -6 14 3 6 11 6 20 -2 7 -6 11
-15 8 -20 -3 -5 -1 -9 5 -9 5 0 9 9 8 19 0 11 -4 18 -8 15 -4 -2 -10 0 -13 5
-4 5 -2 12 4 16 6 4 7 11 4 17 -4 7 -2 8 5 4 6 -4 9 -11 6 -16 -3 -5 3 -14 14
-20 13 -7 22 -7 26 0 3 5 12 10 18 9 9 0 9 -2 0 -6 -7 -2 -13 -9 -13 -14 0 -6
4 -8 9 -4 5 3 15 0 23 -7 7 -7 20 -14 28 -16 8 -2 17 -7 20 -10 3 -4 23 -20
45 -37 22 -16 34 -21 26 -12 -12 15 -11 17 8 17 12 0 20 -4 17 -9 -3 -4 1 -17
9 -27 15 -18 15 -18 8 1 -6 18 -5 18 10 6 9 -7 14 -18 10 -24 -10 -16 -10 -56
0 -50 4 2 7 14 5 26 -2 15 2 21 11 19 12 -3 12 0 2 11 -6 8 -8 17 -4 19 4 3 2
3 -5 1 -7 -1 -10 1 -7 7 3 5 -3 7 -13 5 -12 -2 -18 3 -19 16 -1 10 2 19 8 19
5 0 8 -6 7 -12 -2 -8 7 -13 24 -12 15 0 26 -2 26 -5 -2 -19 4 -22 19 -10 9 8
14 9 10 3 -4 -6 4 -20 18 -30 13 -10 22 -21 19 -25 -2 -4 0 -10 5 -13 10 -7 9
13 -2 30 -4 7 0 14 8 17 10 4 12 1 8 -11 -6 -15 -5 -16 13 -2 17 13 18 13 8 0
-13 -18 -16 -63 -4 -55 4 3 10 2 13 -2 2 -5 2 -1 0 7 -8 29 -8 34 2 35 6 0 17
4 25 9 8 5 12 6 8 1 -4 -4 -3 -14 3 -22 9 -10 15 -11 28 -1 13 10 14 10 4 -2
-15 -16 -46 -23 -37 -8 5 7 2 8 -6 3 -9 -6 -11 -4 -5 5 6 9 4 11 -4 5 -9 -5
-9 -11 -3 -17 6 -6 7 -22 2 -39 -5 -18 -5 -27 1 -24 5 4 9 15 9 26 0 10 3 18
7 17 5 -1 18 3 30 10 24 13 37 3 27 -22 -5 -12 -1 -15 16 -13 12 2 25 9 30 16
5 10 9 10 15 2 5 -9 11 -9 23 1 14 12 14 10 3 -9 -7 -15 -8 -23 -1 -23 5 0 10
-5 10 -11 0 -5 -5 -7 -12 -3 -7 5 -8 3 -4 -5 5 -7 10 -10 14 -7 3 3 10 -2 17
-11 9 -13 14 -13 20 -3 5 8 4 11 -2 7 -11 -7 -36 37 -26 46 3 3 19 -3 36 -13
17 -11 34 -17 39 -14 4 3 8 1 8 -5 0 -5 9 -8 20 -6 11 2 19 -1 17 -7 -1 -6 4
-13 12 -16 9 -3 11 0 6 9 -6 11 -5 11 5 2 7 -6 19 -9 26 -6 8 3 14 0 14 -7 0
-6 4 -9 9 -5 5 3 12 1 15 -4 4 -5 1 -13 -5 -17 -8 -5 -9 -3 -4 7 5 8 5 11 0 7
-4 -4 -14 -3 -22 3 -7 6 -13 8 -13 4 0 -18 35 -33 54 -23 14 7 17 7 11 -2 -5
-9 -1 -10 14 -5 16 5 20 3 15 -9 -3 -9 -11 -13 -18 -9 -7 4 -7 1 1 -9 7 -8 10
-18 6 -22 -4 -4 1 -4 11 0 14 5 15 9 4 15 -12 8 -4 13 16 10 5 -1 6 5 2 14 -5
13 -2 14 17 3 12 -7 24 -12 27 -11 3 1 6 -7 6 -18 0 -11 -5 -17 -11 -15 -5 2
-9 9 -7 15 1 7 -2 9 -9 5 -8 -5 -10 -3 -4 7 7 12 6 12 -6 0 -11 -10 -11 -15
-1 -18 6 -3 10 -8 7 -12 -2 -5 6 -8 18 -7 12 0 22 7 22 15 0 8 6 16 13 19 6 2
12 -1 12 -8 0 -6 -4 -9 -8 -6 -10 6 -9 -40 1 -50 4 -5 5 0 1 11 -7 18 -6 18 9
6 12 -9 17 -10 17 -2 0 7 4 10 9 7 5 -3 8 2 7 11 0 9 6 18 14 20 9 3 11 1 4
-4 -5 -4 -10 -17 -10 -29 0 -15 5 -20 18 -16 10 2 18 -1 18 -7 0 -7 -5 -9 -12
-5 -7 5 -8 3 -3 -5 5 -9 13 -7 31 10 18 17 24 19 24 7 0 -8 -11 -21 -25 -28
-14 -7 -25 -17 -25 -22 0 -5 4 -7 9 -4 5 4 12 0 15 -6 3 -7 4 -4 3 6 -1 10 4
21 11 23 7 3 12 -5 13 -19 1 -23 1 -23 8 2 7 26 20 17 16 -12 -2 -11 2 -15 13
-11 11 5 13 3 7 -7 -6 -9 -4 -11 5 -5 10 6 10 11 -3 20 -9 7 -14 15 -10 18 3
4 11 3 17 -2 11 -9 17 -11 37 -11 5 0 8 -4 5 -9 -4 -5 5 -4 18 2 13 7 22 16
19 20 -3 5 4 4 14 -2 11 -6 23 -8 26 -5 3 3 4 -6 3 -20 -2 -15 1 -29 6 -32 5
-3 1 -12 -9 -19 -17 -13 -16 -14 4 -8 26 6 28 14 11 31 -9 9 -9 12 1 12 7 0
10 4 6 9 -3 6 6 8 22 5 16 -3 29 -9 31 -15 2 -5 12 -4 24 2 15 8 19 8 14 0 -4
-6 -2 -11 3 -11 21 0 11 -16 -11 -17 -19 -2 -20 0 -8 8 13 9 12 10 -2 5 -10
-3 -20 -1 -24 5 -3 6 -13 8 -21 5 -9 -4 -11 -2 -7 6 4 7 3 8 -4 4 -6 -4 -8
-14 -5 -22 5 -12 7 -13 14 -3 4 8 11 10 15 6 4 -3 1 -15 -7 -24 -7 -10 -9 -15
-5 -11 5 4 14 1 20 -7 8 -11 15 -12 26 -4 13 9 13 10 -2 6 -9 -3 -19 0 -21 8
-4 9 2 12 19 11 13 0 27 -9 30 -19 3 -9 9 -15 14 -12 5 3 11 -3 13 -12 3 -10
4 -6 4 8 -1 18 -6 25 -14 22 -15 -6 -18 13 -4 21 12 8 32 -18 34 -42 1 -13 6
-18 16 -14 9 3 12 1 7 -6 -9 -15 12 -26 27 -14 7 5 22 9 34 8 25 -2 44 -16 23
-16 -9 0 -7 -5 5 -14 13 -10 25 -11 37 -5 24 13 34 11 20 -3 -7 -7 -12 -17
-12 -23 0 -5 5 -2 11 8 5 9 15 17 21 17 6 0 5 -7 -3 -18 -13 -16 -13 -16 5 -2
18 14 19 13 13 -3 -4 -11 -3 -16 3 -12 6 3 10 2 10 -3 0 -6 8 -13 17 -16 15
-6 15 -4 -2 14 -10 11 -16 23 -13 26 9 8 49 -48 44 -62 -3 -8 1 -11 10 -7 11
4 12 9 4 18 -7 9 -7 15 -1 19 5 4 14 -1 19 -9 8 -15 10 -15 23 1 8 9 13 19 12
21 -2 1 -3 9 -3 16 0 8 3 7 9 -3 6 -8 7 -18 5 -22 -6 -9 21 -5 49 7 10 4 21 5
24 1 4 -3 -1 -6 -11 -6 -9 0 -14 -5 -11 -10 4 -6 10 -8 14 -6 4 3 8 -1 8 -9 0
-10 -4 -12 -12 -5 -7 5 -16 6 -20 2 -5 -4 -5 -1 0 7 6 10 4 12 -5 6 -7 -4 -22
-8 -33 -9 -11 -1 -22 -8 -24 -16 -3 -9 -1 -11 4 -5 16 20 74 11 93 -15 10 -14
22 -22 26 -18 10 10 66 -21 59 -32 -4 -6 -1 -10 4 -10 14 0 14 27 1 32 -5 2 0
14 11 28 15 20 18 21 12 5 -6 -18 -5 -19 11 -6 9 8 16 10 15 5 -4 -21 2 -26
18 -13 15 12 16 12 8 -1 -5 -8 -10 -24 -12 -35 -1 -11 1 -14 3 -7 3 6 13 12
22 12 15 0 15 2 2 10 -13 8 -12 10 3 10 22 0 22 -16 0 -30 -14 -9 -15 -10 -2
-7 18 6 73 -26 62 -36 -3 -4 -1 -7 5 -7 7 0 12 5 12 10 0 6 3 9 8 9 4 -1 9 0
12 1 18 8 59 5 57 -4 -1 -5 7 -11 18 -12 36 -2 63 -14 69 -31 5 -13 4 -14 -9
-3 -11 9 -15 9 -15 1 0 -7 -5 -9 -11 -5 -8 4 -7 9 2 15 10 6 10 9 2 9 -17 0
-29 -23 -15 -28 7 -2 9 -9 5 -15 -4 -8 -1 -7 9 1 9 7 22 11 29 10 9 -2 13 5
12 17 -1 19 -1 19 11 3 7 -10 15 -15 18 -13 3 3 11 -1 17 -9 10 -11 9 -14 -1
-12 -7 1 -19 5 -25 9 -8 5 -13 4 -13 -2 0 -10 14 -15 33 -12 4 0 7 -6 7 -15 0
-8 -4 -12 -10 -9 -5 3 -10 1 -10 -5 0 -6 11 -8 26 -6 20 4 24 2 20 -10 -3 -9
-2 -12 5 -9 6 4 8 13 5 21 -3 7 -1 16 5 19 5 4 7 11 3 16 -3 5 -10 7 -15 3 -5
-3 -7 -9 -4 -14 3 -5 0 -12 -6 -16 -9 -5 -10 0 -6 16 3 13 1 31 -6 39 -7 8 3
5 20 -7 23 -17 32 -29 29 -45 -2 -12 1 -30 5 -39 8 -15 13 -16 34 -6 24 11 32
34 10 26 -6 -2 -9 -6 -8 -10 5 -13 -26 -16 -31 -2 -3 8 -1 14 4 14 6 0 10 5
10 11 0 5 -6 7 -12 3 -9 -5 -8 -2 1 9 13 16 15 16 31 2 12 -11 20 -13 25 -6 3
6 12 11 18 11 7 0 6 -4 -3 -10 -8 -5 -12 -10 -7 -11 4 -1 12 -3 17 -4 6 -1 15
-3 20 -4 18 -2 10 -17 -10 -18 -11 -1 -20 3 -20 9 0 6 -2 9 -5 6 -3 -3 -3 -13
1 -22 5 -14 9 -14 22 -4 13 11 15 10 10 -3 -5 -13 0 -16 23 -13 16 2 29 -1 29
-6 0 -9 -15 -14 -33 -11 -5 1 -6 -3 -2 -9 4 -7 12 -7 26 0 19 11 25 2 12 -16
-5 -5 0 -1 10 9 9 11 17 24 16 31 0 8 -2 7 -5 -1 -4 -8 -12 -5 -25 8 -11 11
-24 17 -29 14 -6 -3 -7 1 -4 9 3 9 10 16 16 16 5 0 6 -5 2 -12 -5 -8 -2 -9 9
-5 10 4 16 2 14 -6 -1 -6 10 -12 25 -12 14 0 30 -3 34 -7 4 -4 14 -2 23 5 14
11 14 10 2 -6 -15 -19 -2 -24 16 -6 11 11 11 7 4 -30 -1 -2 -12 4 -26 13 -23
15 -25 15 -45 -6 -11 -12 -20 -26 -20 -31 0 -5 9 2 21 17 11 14 25 23 31 20 6
-4 5 -9 -3 -15 -7 -4 -10 -12 -5 -16 5 -4 11 -2 13 5 3 6 9 12 14 12 6 0 7 -6
3 -12 -5 -9 -2 -9 9 1 9 7 36 15 60 16 23 1 36 0 29 -2 -6 -3 -9 -9 -6 -14 3
-6 11 -5 20 2 12 10 15 10 12 -1 -2 -8 2 -15 7 -15 6 -1 18 -5 28 -10 14 -6
15 -10 6 -21 -6 -8 -16 -14 -21 -14 -6 0 -4 8 3 17 12 14 12 16 0 8 -9 -5 -12
-4 -7 3 4 7 -1 10 -14 7 -11 -2 -22 1 -26 7 -4 7 -9 6 -15 -3 -4 -7 -11 -10
-16 -6 -4 5 -1 13 7 18 12 9 12 10 -3 5 -10 -3 -16 -2 -13 2 3 5 -2 9 -10 9
-10 0 -11 -4 -4 -11 16 -16 12 -30 -5 -16 -13 11 -18 11 -28 0 -10 -10 -9 -12
5 -7 9 3 22 -1 28 -8 9 -11 17 -12 30 -5 26 14 30 13 31 -7 0 -15 2 -15 9 2 8
19 11 18 14 -4 2 -18 16 -24 30 -12 12 10 20 9 39 -4 19 -12 27 -13 33 -4 5 8
3 9 -6 4 -9 -6 -11 -4 -6 4 5 8 2 11 -9 9 -10 -2 -20 4 -22 12 -4 13 -3 13 6
0 9 -13 11 -12 11 4 0 16 2 16 20 -5 10 -13 19 -20 20 -15 0 5 8 2 17 -5 15
-12 16 -12 9 6 -6 16 -5 18 5 8 10 -10 10 -16 1 -25 -7 -7 -12 -9 -12 -5 0 4
-14 0 -30 -8 -17 -9 -28 -20 -25 -25 4 -6 8 -10 11 -10 3 0 2 5 -2 12 -5 8 -2
9 10 5 9 -4 15 -3 12 2 -7 11 14 20 32 14 6 -3 9 -10 6 -15 -4 -7 -2 -8 5 -4
6 4 9 11 6 16 -3 4 3 14 13 21 16 13 16 12 2 -5 -13 -17 -13 -18 5 -14 11 2
19 10 17 17 -1 7 2 10 9 5 9 -5 3 -15 -16 -32 -27 -23 -27 -24 -6 -17 16 5 21
4 17 -4 -4 -6 -2 -11 4 -11 7 0 10 6 7 14 -6 16 19 43 30 32 3 -3 0 -6 -7 -6
-14 0 -5 -14 11 -16 5 -1 11 -3 14 -4 3 -1 8 -3 13 -5 4 -1 15 -5 24 -9 9 -4
22 -9 30 -10 7 -1 23 -8 36 -14 12 -7 22 -9 22 -5 0 4 5 2 11 -4 6 -6 18 -9
25 -6 17 6 19 -13 2 -23 -6 -4 -8 -3 -4 4 3 6 -1 9 -11 7 -10 -1 -23 2 -30 7
-7 5 -18 6 -24 2 -8 -5 -9 -3 -4 6 6 9 4 11 -5 5 -8 -5 -11 -4 -6 3 3 6 -1 9
-11 8 -10 -2 -19 -11 -20 -22 -3 -18 -2 -17 6 1 8 19 9 19 16 2 5 -13 13 -16
29 -11 19 6 20 5 6 -12 -14 -18 -14 -18 4 -4 18 14 19 13 13 -3 -3 -9 -2 -17
3 -17 6 0 10 8 10 17 0 13 3 14 12 5 7 -7 17 -8 30 -1 10 5 18 7 18 3 0 -3 8
0 18 7 15 13 16 12 3 -3 -8 -11 -9 -18 -3 -18 6 0 14 5 17 10 3 6 12 10 18 10
7 0 6 -4 -3 -10 -13 -9 -7 -14 12 -11 4 0 14 -12 23 -28 14 -28 50 -49 62 -37
4 3 -1 6 -11 6 -9 0 -15 4 -11 9 3 5 0 13 -6 17 -8 4 -9 3 -5 -4 4 -7 3 -12
-2 -12 -11 0 -25 30 -17 38 3 3 5 0 5 -6 0 -6 9 -9 20 -7 11 2 19 -1 17 -7 -1
-6 4 -13 11 -15 8 -3 10 1 6 14 -5 13 -1 11 11 -6 13 -17 15 -25 5 -31 -8 -5
-7 -9 5 -13 9 -4 13 -3 10 3 -3 6 -2 10 3 10 6 0 13 -7 16 -16 5 -13 10 -13
36 6 22 16 28 17 24 6 -3 -9 -10 -16 -15 -16 -5 0 -9 -4 -9 -9 0 -6 12 -4 26
4 26 13 54 11 54 -5 0 -5 8 -7 18 -5 9 1 23 -3 31 -9 11 -8 13 -8 7 1 -6 12 4
18 26 14 4 0 5 5 2 13 -3 8 0 17 7 22 8 4 10 3 5 -4 -4 -7 -2 -12 3 -12 6 0
11 4 11 9 0 5 8 12 18 16 14 5 15 4 5 -6 -16 -16 -17 -29 -2 -29 5 0 8 4 4 9
-3 5 0 13 6 16 5 4 8 13 5 21 -3 7 0 16 6 20 7 4 8 3 4 -4 -12 -20 8 -13 38
13 16 14 40 25 53 25 12 0 23 5 23 11 0 5 -4 7 -10 4 -6 -4 -7 1 -3 11 4 10 8
13 10 7 5 -13 63 14 76 35 7 11 11 11 25 0 14 -11 15 -10 9 5 -5 14 -2 20 13
24 18 5 25 15 21 36 -1 5 3 6 9 2 6 -4 17 -1 25 5 8 7 15 9 15 5 0 -4 7 -2 15
5 8 6 19 9 24 5 6 -3 8 0 5 8 -5 15 22 31 37 21 5 -3 9 2 9 10 0 9 5 16 11 16
5 0 7 -5 3 -12 -4 -6 5 -3 19 8 15 10 27 22 27 27 0 4 5 7 11 7 5 0 7 -5 4
-10 -3 -6 -1 -10 4 -10 14 0 14 13 -1 28 -16 16 4 16 21 0 11 -11 13 -10 8 4
-7 20 9 25 16 6 5 -12 11 26 8 45 -1 5 3 6 9 2 6 -3 8 -10 5 -15 -3 -4 3 -14
13 -21 16 -13 16 -13 2 5 -14 18 -13 19 4 12 19 -7 19 -6 2 13 -16 18 -16 19
1 17 11 0 17 5 15 13 -2 11 0 12 10 3 8 -6 24 -10 35 -9 17 1 20 4 11 15 -12
14 4 32 29 32 7 0 10 7 7 18 -5 16 -5 16 6 0 6 -10 18 -18 26 -18 8 0 13 -4 9
-9 -3 -5 -2 -12 3 -15 5 -3 9 2 9 11 0 9 -9 18 -19 21 -23 6 -13 22 13 22 11
0 18 -4 15 -8 -3 -5 1 -9 8 -9 7 0 13 6 13 13 0 7 -4 11 -8 8 -4 -2 -10 0 -14
6 -3 5 1 10 9 10 8 0 19 8 25 18 9 15 11 15 20 -8 10 -24 11 -23 7 7 -2 18 -1
32 2 31 17 -3 62 15 62 26 0 6 5 4 10 -4 8 -13 10 -12 11 5 1 11 1 23 1 26 -1
4 7 5 18 2 11 -3 17 -9 14 -14 -3 -5 -9 -7 -13 -5 -4 3 -7 -7 -8 -22 -1 -15 1
-20 4 -12 12 33 25 41 42 28 10 -8 9 -5 -3 10 -12 13 -14 22 -7 22 7 0 10 4 7
9 -3 4 4 8 15 7 11 0 24 -8 29 -16 5 -8 10 -10 10 -4 0 6 -7 17 -15 24 -8 7
-15 17 -15 22 0 5 7 2 16 -7 15 -14 18 -14 34 0 9 8 20 12 24 8 4 -4 4 1 0 12
-6 15 -4 17 10 12 11 -5 15 -3 10 5 -5 8 -2 9 11 4 16 -6 16 -4 4 11 -8 9 -9
14 -3 10 6 -4 24 5 38 18 33 31 40 32 25 3 -11 -21 -11 -22 4 -9 10 7 17 20
17 28 0 9 6 13 15 10 7 -3 24 3 37 14 l23 20 -30 -17 -30 -16 25 21 c14 11 31
19 37 16 7 -2 12 1 10 8 -1 7 9 12 23 12 20 1 25 6 23 25 -1 14 1 19 3 13 8
-20 32 -15 44 7 6 11 15 20 21 20 6 0 8 -4 4 -9 -3 -5 -1 -12 3 -15 5 -3 9 7
8 22 0 16 4 26 12 24 7 -1 12 3 12 9 0 6 5 9 12 7 7 -3 23 7 37 21 15 16 22
20 18 9 -3 -9 0 -19 7 -21 9 -4 11 2 8 18 -2 12 2 26 8 30 9 5 10 1 5 -16 -5
-18 -4 -20 4 -9 6 8 16 15 23 15 7 0 12 8 10 18 -2 9 2 17 8 17 5 0 10 -4 10
-9 0 -5 7 -12 16 -15 14 -5 15 -4 4 9 -9 11 -10 19 -3 26 9 9 17 12 53 18 3 1
-2 6 -10 12 -13 9 -13 10 0 8 30 -3 41 1 34 13 -5 7 -3 8 6 3 10 -6 12 -4 7 8
-4 11 -1 15 14 12 10 -2 19 0 19 6 0 5 9 9 20 9 11 0 20 5 20 11 0 5 4 8 9 4
5 -3 12 -1 15 4 4 5 -5 8 -19 7 -13 -2 -22 1 -19 5 3 5 18 7 34 4 22 -4 32 0
39 14 6 10 7 22 3 26 -4 5 -2 5 5 1 6 -3 10 -16 8 -27 -4 -17 -2 -19 10 -9 8
7 12 17 8 23 -4 6 0 8 9 5 8 -4 15 -1 15 7 0 8 -8 12 -20 9 -11 -2 -16 0 -13
4 4 4 16 7 26 7 10 0 33 14 52 30 18 17 42 32 53 33 11 2 24 8 30 13 5 5 14 9
20 9 5 0 3 -5 -5 -11 -13 -9 -13 -10 0 -6 8 2 15 13 14 24 -1 11 5 20 11 20 8
0 11 -7 7 -15 -3 -10 -1 -13 6 -8 7 4 12 14 12 22 0 17 11 18 30 1 12 -10 12
-9 2 4 -12 16 -7 29 10 29 5 0 7 -4 4 -9 -3 -5 1 -14 8 -20 10 -9 16 -9 21 -1
4 6 3 9 -2 8 -9 -3 -13 5 -13 28 0 8 5 12 10 9 6 -4 7 -11 4 -17 -4 -7 -2 -8
4 -4 6 4 9 13 6 21 -4 11 1 13 23 9 21 -3 24 -2 13 5 -13 9 -13 12 -1 23 10
10 12 10 7 1 -4 -7 -2 -13 5 -13 6 0 9 8 7 18 -3 11 0 19 8 19 7 0 11 -4 8 -8
-2 -4 0 -10 5 -13 5 -4 8 5 6 19 -1 14 2 28 8 32 6 3 7 1 3 -5 -4 -7 -3 -12 3
-12 6 0 9 -6 8 -12 -2 -7 1 -3 7 10 5 12 14 22 19 22 4 0 6 4 3 8 -2 4 4 8 14
8 10 0 18 -4 17 -9 -3 -13 31 -18 39 -6 3 5 0 8 -7 7 -7 -2 -15 5 -17 14 -2
10 2 18 8 18 6 0 19 7 27 16 9 8 19 11 22 6 8 -11 42 -12 35 0 -3 5 -9 6 -14
3 -4 -3 -10 2 -13 10 -4 9 -1 12 9 8 8 -3 14 -2 12 3 -2 5 2 10 7 11 6 1 9 -6
7 -15 -2 -16 -1 -16 11 0 8 10 18 14 22 10 4 -4 2 4 -5 18 -7 14 -9 22 -5 18
4 -4 18 -3 31 2 19 8 22 6 18 -8 -2 -9 1 -7 7 6 11 20 31 27 69 23 13 -2 13
-1 0 8 -8 6 -24 8 -35 5 -18 -4 -18 -4 -2 6 9 6 22 8 29 4 8 -5 9 -1 4 12 -4
10 -4 15 0 12 9 -10 46 11 39 22 -3 5 -2 11 2 13 5 3 9 -8 9 -24 1 -16 -2 -27
-6 -24 -3 2 -7 -2 -7 -10 0 -11 3 -12 14 -3 8 6 12 17 9 23 -2 7 6 23 17 36
12 14 18 19 13 12 -5 -8 -4 -13 2 -13 15 0 33 35 24 46 -4 5 4 0 17 -11 l24
-20 -11 22 c-10 17 -9 21 4 19 19 -3 35 -26 27 -40 -3 -5 -1 -6 5 -2 6 4 9 13
5 21 -4 11 0 14 13 9 15 -5 16 -4 4 4 -8 6 -17 9 -21 6 -4 -2 -7 4 -6 15 1 14
5 17 13 10 8 -6 13 -6 16 0 1 5 10 11 18 13 8 2 25 13 38 26 13 12 28 19 35
15 17 -10 47 -11 41 -1 -4 5 -12 7 -19 4 -17 -6 -28 21 -13 30 7 4 8 3 4 -4
-4 -7 -1 -12 9 -12 10 0 13 5 9 13 -4 6 3 3 16 -8 l24 -20 -17 27 c-12 19 -14
29 -5 34 7 4 8 3 4 -4 -4 -7 -3 -12 3 -12 5 0 13 5 16 10 4 6 11 8 16 5 5 -4
9 -1 9 4 0 6 5 11 11 11 5 0 7 -4 4 -10 -3 -5 0 -7 9 -4 12 5 13 9 3 19 -7 7
-16 10 -21 7 -5 -3 -6 0 -2 7 5 7 12 9 19 3 19 -14 49 -23 42 -12 -3 6 0 13 9
16 8 3 13 11 10 19 -4 9 4 12 28 10 18 -2 27 -1 21 2 -15 6 -17 29 -3 38 6 4
7 -1 3 -10 -5 -15 -3 -15 15 -4 11 7 25 22 31 34 5 11 10 14 10 8 1 -7 9 -13
19 -13 14 0 15 2 2 10 -13 8 -13 10 2 10 20 0 41 33 30 46 -4 5 0 3 8 -3 12
-9 15 -7 16 10 7 118 16 336 16 350 0 10 4 15 10 11 7 -4 7 0 0 12 -5 11 -8
26 -7 34 1 8 5 76 9 150 4 74 9 171 11 215 3 44 7 136 10 205 6 117 8 162 20
400 5 108 14 277 20 395 3 44 7 136 10 205 3 69 8 161 10 205 3 44 7 130 10
190 2 61 7 148 10 195 3 47 7 137 10 200 3 63 7 158 10 210 12 227 19 371 30
610 8 168 11 186 34 218 16 24 79 83 167 159 48 41 148 129 158 138 6 6 49 44
96 85 47 41 90 79 96 84 9 10 94 84 158 139 12 10 32 28 46 40 14 12 63 55
110 96 47 41 87 77 90 80 3 3 23 22 45 41 119 103 171 147 195 170 15 14 53
48 85 75 32 28 63 55 69 60 11 10 124 109 195 171 18 16 43 38 55 49 12 11 51
45 86 75 35 30 75 66 89 79 14 13 41 37 60 53 28 25 31 32 20 43 -12 11 -27 7
-89 -20z m-2145 -5564 c3 -5 2 -12 -3 -15 -5 -3 -9 1 -9 9 0 17 3 19 12 6z
m-7135 -483 c0 -4 -6 -5 -14 -2 -8 3 -17 1 -21 -5 -3 -6 -12 -11 -18 -11 -7 0
-4 7 6 14 14 11 15 15 3 19 -8 3 -23 3 -34 0 -11 -2 -23 1 -27 8 -5 7 -4 10 3
5 6 -3 13 -2 16 3 7 10 86 -19 86 -31z m210 -58 c0 -5 -5 -10 -11 -10 -5 0 -7
5 -4 10 3 6 8 10 11 10 2 0 4 -4 4 -10z m130 -65 c5 3 15 -2 23 -10 9 -8 17
-11 20 -7 2 4 2 2 1 -5 -2 -7 2 -15 8 -19 6 -4 8 -3 5 2 -3 6 -2 16 4 24 7 12
9 10 9 -7 0 -32 -18 -38 -40 -11 -11 13 -19 19 -20 15 0 -4 -9 -3 -20 3 -12 6
-18 16 -13 23 5 8 8 8 11 -1 2 -7 7 -10 12 -7z m290 -100 c8 -10 8 -15 -1 -21
-8 -5 -9 -3 -4 6 6 10 4 12 -8 7 -8 -3 -20 0 -26 7 -7 8 -5 12 9 13 10 1 24
-4 30 -12z m343 -138 c3 -8 -1 -14 -8 -14 -7 0 -11 6 -8 14 3 7 6 13 8 13 2 0
5 -6 8 -13z m454 -172 c0 -8 -4 -15 -9 -15 -10 0 -11 14 -1 23 9 10 10 9 10
-8z m80 -31 c-7 -7 -37 7 -37 18 0 5 5 6 10 3 6 -3 10 0 10 7 0 8 5 6 11 -5 6
-10 9 -21 6 -23z m87 -21 c3 -7 12 -10 21 -7 8 3 15 1 15 -6 0 -6 5 -8 10 -5
6 3 10 2 10 -4 0 -5 -4 -13 -10 -16 -5 -3 -10 -2 -10 3 0 5 -8 9 -17 8 -10 0
-19 4 -21 9 -5 14 -32 28 -39 21 -4 -3 -1 -6 5 -6 7 0 12 -5 12 -11 0 -8 -4
-9 -13 0 -8 6 -18 7 -23 3 -4 -4 -3 1 4 10 15 19 49 20 56 1z m300 -109 c5
-13 9 -14 22 -3 12 10 15 10 12 -2 -2 -10 6 -14 25 -13 26 0 27 -1 11 -13 -12
-9 -13 -13 -4 -13 7 0 10 -3 7 -6 -4 -4 -13 -2 -21 5 -11 9 -15 8 -20 -4 -3
-8 -10 -15 -16 -15 -6 0 -8 5 -5 10 3 6 -1 13 -10 16 -9 4 -14 13 -11 20 3 8
1 14 -4 14 -6 0 -10 5 -10 10 0 16 17 12 24 -6z m126 -49 c0 4 8 1 18 -7 9 -9
25 -14 35 -13 10 2 21 -3 23 -10 3 -8 13 -11 22 -8 14 4 14 3 3 -5 -11 -8 -9
-11 8 -17 11 -3 21 -11 21 -16 0 -15 -16 -10 -35 11 -10 11 -22 17 -26 14 -5
-3 -12 2 -15 10 -3 9 -10 14 -14 11 -5 -3 -12 0 -16 6 -4 7 -9 8 -13 1 -7 -12
-26 -20 -26 -11 0 3 -6 13 -13 22 -8 9 -10 22 -6 28 5 9 11 7 21 -6 7 -11 13
-15 13 -10z m3140 -39 c0 -2 -6 -9 -14 -15 -11 -9 -16 -9 -22 0 -4 8 -3 9 4 5
7 -4 12 -2 12 3 0 6 5 11 10 11 6 0 10 -2 10 -4z m-2975 -34 c2 -26 -13 -29
-22 -4 -4 9 -11 20 -17 25 -6 4 0 6 13 4 17 -3 25 -11 26 -25z m134 -42 c1 9
4 11 9 5 4 -5 16 -12 27 -13 26 -5 27 -6 19 -26 -4 -11 -12 -15 -23 -10 -9 3
-23 7 -31 7 -20 0 -29 15 -22 40 5 20 6 20 13 1 5 -13 8 -14 8 -4z m251 -104
c0 -3 -10 -3 -22 -1 -25 5 -60 35 -40 35 7 0 12 -4 12 -10 0 -5 4 -10 10 -10
5 0 6 8 3 17 -5 12 -1 11 15 -5 12 -12 22 -24 22 -26z m2020 -170 c0 -2 -7 -9
-15 -16 -13 -11 -14 -10 -9 4 5 14 24 23 24 12z m-705 -307 c-4 -5 -1 -9 4 -9
6 0 11 5 11 12 0 6 3 8 6 5 4 -4 1 -13 -6 -22 -11 -14 -14 -13 -25 2 -14 19
-10 37 6 27 5 -3 7 -10 4 -15z"/>
<path d="M5301 3454 c6 -7 16 -11 21 -8 11 7 3 17 -18 20 -12 2 -13 -1 -3 -12z"/>
<path d="M5390 3443 c0 -6 5 -15 10 -18 6 -4 8 -11 5 -16 -10 -15 2 -10 16 8
8 10 9 14 2 10 -7 -4 -16 0 -22 10 -6 10 -11 13 -11 6z"/>
<path d="M5705 3299 c3 -4 14 -6 25 -4 11 2 20 -1 20 -6 0 -6 5 -7 11 -4 6 4
8 9 5 12 -9 9 -66 11 -61 2z"/>
<path d="M2753 5605 c0 -8 4 -12 9 -9 5 3 6 10 3 15 -9 13 -12 11 -12 -6z"/>
<path d="M2870 4720 c0 -5 5 -10 11 -10 5 0 7 5 4 10 -3 6 -8 10 -11 10 -2 0
-4 -4 -4 -10z"/>
<path d="M10650 4720 c0 -5 5 -10 11 -10 5 0 7 5 4 10 -3 6 -8 10 -11 10 -2 0
-4 -4 -4 -10z"/>
<path d="M10690 4699 c0 -5 5 -7 10 -4 6 3 10 8 10 11 0 2 -4 4 -10 4 -5 0
-10 -5 -10 -11z"/>
<path d="M10630 4690 c-9 -6 -10 -10 -3 -10 6 0 15 5 18 10 8 12 4 12 -15 0z"/>
<path d="M10630 4659 c0 -5 5 -7 10 -4 6 3 10 8 10 11 0 2 -4 4 -10 4 -5 0
-10 -5 -10 -11z"/>
<path d="M10517 4595 c-4 -8 -3 -16 1 -19 4 -3 9 4 9 15 2 23 -3 25 -10 4z"/>
<path d="M10550 4606 c0 -2 7 -7 16 -10 8 -3 12 -2 9 4 -6 10 -25 14 -25 6z"/>
<path d="M10445 4589 c-4 -6 -5 -12 -2 -15 2 -3 7 2 10 11 7 17 1 20 -8 4z"/>
<path d="M10350 4520 c0 -5 5 -10 10 -10 6 0 10 5 10 10 0 6 -4 10 -10 10 -5
0 -10 -4 -10 -10z"/>
<path d="M10464 4522 c4 -3 14 -7 22 -8 9 -1 13 0 10 4 -4 3 -14 7 -22 8 -9 1
-13 0 -10 -4z"/>
<path d="M10290 4482 c0 -5 7 -9 15 -9 8 0 12 4 9 9 -3 4 -9 8 -15 8 -5 0 -9
-4 -9 -8z"/>
<path d="M10629 4443 c-13 -16 -12 -17 4 -4 16 13 21 21 13 21 -2 0 -10 -8
-17 -17z"/>
<path d="M10319 4433 c-13 -16 -12 -17 4 -4 16 13 21 21 13 21 -2 0 -10 -8
-17 -17z"/>
<path d="M10215 4410 c-4 -6 -10 -8 -14 -6 -4 3 -8 -1 -8 -9 0 -13 4 -12 19 2
18 16 22 23 14 23 -3 0 -8 -5 -11 -10z"/>
<path d="M10396 4398 c3 -5 10 -6 15 -3 13 9 11 12 -6 12 -8 0 -12 -4 -9 -9z"/>
<path d="M10516 4402 c-3 -5 1 -9 9 -9 8 0 12 4 9 9 -3 4 -7 8 -9 8 -2 0 -6
-4 -9 -8z"/>
<path d="M10158 4383 c7 -3 16 -2 19 1 4 3 -2 6 -13 5 -11 0 -14 -3 -6 -6z"/>
<path d="M3047 4313 c-3 -5 1 -17 9 -28 12 -16 14 -17 14 -2 0 9 0 20 1 24 1
11 -18 15 -24 6z"/>
<path d="M10029 4303 c-13 -16 -12 -17 4 -4 9 7 17 15 17 17 0 8 -8 3 -21 -13z"/>
<path d="M9975 4290 c3 -5 8 -10 11 -10 2 0 4 5 4 10 0 6 -5 10 -11 10 -5 0
-7 -4 -4 -10z"/>
<path d="M10055 4291 c-3 -5 -2 -12 3 -15 5 -3 9 1 9 9 0 17 -3 19 -12 6z"/>
<path d="M2990 4281 c0 -5 8 -15 18 -22 15 -12 16 -12 5 2 -7 9 -10 19 -6 22
3 4 1 7 -5 7 -7 0 -12 -4 -12 -9z"/>
<path d="M2933 4265 c0 -8 4 -12 9 -9 5 3 6 10 3 15 -9 13 -12 11 -12 -6z"/>
<path d="M3070 4260 c-12 -7 -10 -9 7 -7 12 0 19 5 17 9 -6 10 -6 10 -24 -2z"/>
<path d="M3132 4243 c2 -17 6 -19 24 -13 13 5 26 4 34 -3 10 -9 11 -9 6 1 -4
7 -2 12 6 12 10 0 10 2 -1 9 -9 6 -21 5 -33 -2 -15 -10 -21 -9 -28 3 -7 12 -9
10 -8 -7z"/>
<path d="M9970 4256 c0 -2 8 -10 18 -17 15 -13 16 -12 3 4 -13 16 -21 21 -21
13z"/>
<path d="M3224 4242 c4 -7 2 -12 -4 -12 -20 0 -1 -17 25 -22 13 -3 22 -1 19 3
-3 5 -12 9 -20 9 -8 0 -13 4 -9 9 3 5 0 13 -6 17 -8 4 -9 3 -5 -4z"/>
<path d="M10010 4240 c0 -5 5 -10 11 -10 5 0 7 5 4 10 -3 6 -8 10 -11 10 -2 0
-4 -4 -4 -10z"/>
<path d="M9874 4223 c4 -7 2 -13 -4 -13 -6 0 -8 -4 -5 -10 3 -5 10 -10 15 -10
10 0 7 27 -5 37 -4 4 -5 2 -1 -4z"/>
<path d="M9914 4195 c0 -13 3 -22 7 -19 8 4 6 30 -2 38 -3 3 -5 -5 -5 -19z"/>
<path d="M2956 4198 c3 -5 10 -6 15 -3 13 9 11 12 -6 12 -8 0 -12 -4 -9 -9z"/>
<path d="M3116 4193 c-6 -14 -5 -15 5 -6 7 7 10 15 7 18 -3 3 -9 -2 -12 -12z"/>
<path d="M9946 4202 c-3 -5 1 -9 9 -9 8 0 12 4 9 9 -3 4 -7 8 -9 8 -2 0 -6 -4
-9 -8z"/>
<path d="M3036 4181 c-3 -5 2 -15 12 -22 15 -12 16 -12 5 2 -7 9 -10 19 -6 22
3 4 4 7 0 7 -3 0 -8 -4 -11 -9z"/>
<path d="M9869 4163 c-13 -16 -12 -17 4 -4 9 7 17 15 17 17 0 8 -8 3 -21 -13z"/>
<path d="M3253 4154 c0 -9 4 -11 12 -4 7 5 14 9 16 7 2 -1 3 0 1 2 -7 11 -29
7 -29 -5z"/>
<path d="M3414 4152 c3 -21 33 -35 39 -19 3 8 2 18 -1 24 -10 15 -40 12 -38
-5z m31 -2 c3 -5 -1 -10 -10 -10 -9 0 -13 5 -10 10 3 6 8 10 10 10 2 0 7 -4
10 -10z"/>
<path d="M9788 4163 c7 -3 16 -2 19 1 4 3 -2 6 -13 5 -11 0 -14 -3 -6 -6z"/>
<path d="M2975 4140 c-3 -5 -1 -10 4 -10 6 0 11 5 11 10 0 6 -2 10 -4 10 -3 0
-8 -4 -11 -10z"/>
<path d="M9776 4142 c-6 -10 -2 -40 7 -47 4 -3 5 -2 2 2 -3 3 1 13 8 21 10 13
9 14 -2 7 -11 -6 -13 -4 -8 8 7 18 2 23 -7 9z"/>
<path d="M9915 4141 c-3 -5 -2 -12 3 -15 5 -3 9 1 9 9 0 17 -3 19 -12 6z"/>
<path d="M3299 4138 c-5 -18 -6 -38 -1 -34 7 8 12 36 6 36 -2 0 -4 -1 -5 -2z"/>
<path d="M3245 4119 c-3 -4 2 -6 10 -5 21 3 28 13 10 13 -9 0 -18 -4 -20 -8z"/>
<path d="M3320 4126 c0 -2 8 -10 18 -17 15 -13 16 -12 3 4 -13 16 -21 21 -21
13z"/>
<path d="M10176 4118 c3 -5 10 -6 15 -3 13 9 11 12 -6 12 -8 0 -12 -4 -9 -9z"/>
<path d="M9813 4105 c0 -8 4 -12 9 -9 5 3 6 10 3 15 -9 13 -12 11 -12 -6z"/>
<path d="M2975 4100 c3 -5 8 -10 11 -10 2 0 4 5 4 10 0 6 -5 10 -11 10 -5 0
-7 -4 -4 -10z"/>
<path d="M3010 4099 c0 -5 5 -7 10 -4 6 3 10 8 10 11 0 2 -4 4 -10 4 -5 0 -10
-5 -10 -11z"/>
<path d="M3388 4103 c10 -4 10 -8 0 -21 -9 -12 -6 -11 10 2 12 11 22 20 22 20
0 1 -10 2 -22 3 -13 0 -17 -1 -10 -4z"/>
<path d="M3430 4106 c0 -2 7 -7 16 -10 8 -3 12 -2 9 4 -6 10 -25 14 -25 6z"/>
<path d="M3510 4099 c0 -5 5 -7 12 -3 8 5 9 1 4 -12 -5 -14 -4 -16 5 -7 6 6 8
16 5 22 -9 14 -26 14 -26 0z"/>
<path d="M9715 4100 c-3 -5 -1 -10 4 -10 6 0 11 5 11 10 0 6 -2 10 -4 10 -3 0
-8 -4 -11 -10z"/>
<path d="M9853 4095 c0 -8 4 -12 9 -9 5 3 6 10 3 15 -9 13 -12 11 -12 -6z"/>
<path d="M3616 4091 c-4 -6 -12 -9 -17 -6 -5 4 -9 1 -9 -4 0 -6 7 -11 15 -11
8 0 15 6 15 13 0 8 3 7 9 -3 6 -8 7 -18 5 -22 -3 -4 0 -8 5 -8 15 0 14 12 -2
35 -10 13 -16 15 -21 6z"/>
<path d="M3130 4081 c0 -6 4 -13 10 -16 6 -3 7 1 4 9 -7 18 -14 21 -14 7z"/>
<path d="M3315 4080 c-5 -8 42 -7 49 1 3 3 -6 5 -20 5 -14 0 -27 -3 -29 -6z"/>
<path d="M3473 4075 c0 -8 4 -12 9 -9 5 3 6 10 3 15 -9 13 -12 11 -12 -6z"/>
<path d="M10307 4079 c7 -7 15 -10 18 -7 3 3 -2 9 -12 12 -14 6 -15 5 -6 -5z"/>
<path d="M2975 4060 c-3 -5 -1 -10 4 -10 6 0 11 5 11 10 0 6 -2 10 -4 10 -3 0
-8 -4 -11 -10z"/>
<path d="M3440 4055 c-11 -13 -11 -18 0 -28 10 -9 11 -9 6 1 -4 7 -2 19 4 27
7 8 10 15 7 15 -2 0 -10 -7 -17 -15z"/>
<path d="M3560 4051 c5 -11 15 -23 21 -27 6 -3 3 5 -6 20 -20 30 -30 35 -15 7z"/>
<path d="M3366 4041 c-14 -15 -15 -21 -4 -27 7 -4 10 -3 5 1 -4 5 0 17 10 27
9 10 14 18 11 18 -3 0 -13 -9 -22 -19z"/>
<path d="M3495 4050 c-4 -6 -12 -7 -18 -4 -7 4 -9 4 -5 -1 4 -4 2 -15 -4 -24
-10 -12 -7 -12 8 2 11 9 23 15 26 12 2 -3 5 2 5 10 0 18 -3 19 -12 5z"/>
<path d="M3235 4039 c-3 -4 2 -6 10 -5 21 3 28 13 10 13 -9 0 -18 -4 -20 -8z"/>
<path d="M3600 4040 c0 -6 4 -9 9 -6 5 4 12 1 14 -4 3 -6 4 -5 3 2 -3 15 -26
23 -26 8z"/>
<path d="M9693 4025 c0 -8 4 -12 9 -9 5 3 6 10 3 15 -9 13 -12 11 -12 -6z"/>
<path d="M3540 4026 c0 -2 8 -10 18 -17 15 -13 16 -12 3 4 -13 16 -21 21 -21
13z"/>
<path d="M3655 4021 c-3 -5 0 -13 6 -16 5 -4 8 -14 4 -22 -5 -13 -3 -14 10 -3
15 12 15 14 0 22 -8 5 -13 13 -10 19 4 5 4 9 1 9 -3 0 -7 -4 -11 -9z"/>
<path d="M9595 4010 c-4 -6 -10 -8 -15 -5 -4 3 -14 -3 -21 -13 -12 -15 -12
-16 2 -5 9 7 18 11 21 8 3 -3 11 1 18 10 7 8 10 15 7 15 -3 0 -9 -5 -12 -10z"/>
<path d="M3105 4000 c-3 -6 1 -7 9 -4 18 7 21 14 7 14 -6 0 -13 -4 -16 -10z"/>
<path d="M9870 3999 c0 -5 5 -7 10 -4 6 3 10 8 10 11 0 2 -4 4 -10 4 -5 0 -10
-5 -10 -11z"/>
<path d="M3635 3990 c-3 -5 -1 -10 4 -10 6 0 11 5 11 10 0 6 -2 10 -4 10 -3 0
-8 -4 -11 -10z"/>
<path d="M3862 3995 c4 -4 3 -17 -3 -29 -9 -19 -9 -19 4 -3 19 23 30 22 17 -3
-9 -16 -8 -18 5 -14 8 3 12 10 9 15 -3 5 0 9 5 9 6 0 11 -4 11 -10 0 -5 5 -10
10 -10 6 0 5 8 -2 20 -7 10 -14 17 -16 15 -3 -2 -14 1 -26 7 -11 6 -18 7 -14
3z"/>
<path d="M3559 3973 c-13 -16 -12 -17 4 -4 16 13 21 21 13 21 -2 0 -10 -8 -17
-17z"/>
<path d="M3596 3982 c-3 -5 1 -9 9 -9 8 0 12 4 9 9 -3 4 -7 8 -9 8 -2 0 -6 -4
-9 -8z"/>
<path d="M3700 3985 c0 -2 6 -8 13 -14 10 -8 14 -7 14 2 0 8 -6 14 -14 14 -7
0 -13 -1 -13 -2z"/>
<path d="M3115 3971 c-3 -5 -2 -12 3 -15 5 -3 9 1 9 9 0 17 -3 19 -12 6z"/>
<path d="M9448 3964 c-19 -10 -25 -19 -21 -31 5 -12 3 -14 -7 -8 -9 5 -11 4
-6 -4 6 -9 11 -9 22 0 12 10 12 14 2 21 -9 7 -6 8 9 5 14 -3 21 0 20 7 -1 6 6
11 15 11 23 0 31 10 10 12 -9 1 -29 -5 -44 -13z"/>
<path d="M3140 3966 c0 -2 8 -10 18 -17 15 -13 16 -12 3 4 -13 16 -21 21 -21
13z"/>
<path d="M3225 3959 c-3 -4 2 -6 10 -5 21 3 28 13 10 13 -9 0 -18 -4 -20 -8z"/>
<path d="M3519 3953 c-13 -16 -12 -17 4 -4 16 13 21 21 13 21 -2 0 -10 -8 -17
-17z"/>
<path d="M3690 3961 c0 -6 4 -13 10 -16 6 -3 7 1 4 9 -7 18 -14 21 -14 7z"/>
<path d="M3813 3955 c0 -7 6 -11 14 -8 7 3 13 6 13 8 0 2 -6 5 -13 8 -8 3 -14
-1 -14 -8z"/>
<path d="M3940 3960 c0 -5 5 -10 11 -10 5 0 7 5 4 10 -3 6 -8 10 -11 10 -2 0
-4 -4 -4 -10z"/>
<path d="M9566 3958 c3 -5 10 -6 15 -3 13 9 11 12 -6 12 -8 0 -12 -4 -9 -9z"/>
<path d="M2975 3951 c-3 -5 -2 -12 3 -15 5 -3 9 1 9 9 0 17 -3 19 -12 6z"/>
<path d="M3600 3940 c-9 -6 -10 -10 -3 -10 6 0 15 5 18 10 8 12 4 12 -15 0z"/>
<path d="M3636 3942 c-2 -4 -1 -14 4 -22 7 -11 9 -9 7 8 -1 24 -3 26 -11 14z"/>
<path d="M3666 3940 c6 -8 10 -23 8 -33 -1 -11 0 -16 4 -13 12 13 10 36 -6 48
-15 11 -15 11 -6 -2z"/>
<path d="M9530 3939 c0 -5 5 -7 10 -4 6 3 10 8 10 11 0 2 -4 4 -10 4 -5 0 -10
-5 -10 -11z"/>
<path d="M3035 3929 c-4 -6 -5 -12 -2 -15 2 -3 7 2 10 11 7 17 1 20 -8 4z"/>
<path d="M3113 3925 c0 -8 4 -12 9 -9 5 3 6 10 3 15 -9 13 -12 11 -12 -6z"/>
<path d="M3389 3923 c-13 -16 -12 -17 4 -4 16 13 21 21 13 21 -2 0 -10 -8 -17
-17z"/>
<path d="M3775 3930 c-4 -6 -12 -7 -18 -4 -7 4 -9 4 -5 -1 4 -4 3 -13 -2 -20
-7 -8 -5 -12 5 -12 8 0 13 3 10 5 -3 3 2 14 12 24 9 10 13 18 10 18 -3 0 -9
-5 -12 -10z"/>
<path d="M3926 3923 c-6 -14 -5 -15 5 -6 7 7 10 15 7 18 -3 3 -9 -2 -12 -12z"/>
<path d="M3960 3933 c27 -11 59 -40 52 -48 -4 -5 -1 -5 7 0 10 6 6 13 -15 31
-16 13 -36 23 -44 23 -13 -1 -13 -1 0 -6z"/>
<path d="M3076 3918 c3 -5 10 -6 15 -3 13 9 11 12 -6 12 -8 0 -12 -4 -9 -9z"/>
<path d="M3713 3912 c-8 -14 -8 -19 1 -19 7 0 13 9 13 19 1 10 1 18 0 18 -1 0
-7 -8 -14 -18z"/>
<path d="M3800 3926 c0 -2 8 -10 18 -17 15 -13 16 -12 3 4 -13 16 -21 21 -21
13z"/>
<path d="M3884 3919 c-4 -7 -3 -9 4 -5 5 3 13 0 15 -6 4 -9 6 -10 6 -1 1 17
-16 25 -25 12z"/>
<path d="M3215 3900 c3 -5 8 -10 11 -10 2 0 4 5 4 10 0 6 -5 10 -11 10 -5 0
-7 -4 -4 -10z"/>
<path d="M3860 3906 c0 -2 8 -10 18 -17 15 -13 16 -12 3 4 -13 16 -21 21 -21
13z"/>
<path d="M3950 3906 c0 -2 9 -6 20 -9 11 -3 18 -1 14 4 -5 9 -34 13 -34 5z"/>
<path d="M3484 3878 l-19 -23 23 19 c21 18 27 26 19 26 -2 0 -12 -10 -23 -22z"/>
<path d="M3934 3886 c1 -8 5 -18 8 -22 4 -3 5 1 4 10 -1 8 -5 18 -8 22 -4 3
-5 -1 -4 -10z"/>
<path d="M4137 3884 c3 -8 9 -14 14 -14 5 0 9 -5 9 -11 0 -6 -7 -8 -17 -4 -15
5 -16 4 -5 -7 11 -11 16 -10 28 6 9 13 11 23 4 30 -16 16 -39 16 -33 0z"/>
<path d="M2970 3879 c0 -5 5 -7 10 -4 6 3 10 8 10 11 0 2 -4 4 -10 4 -5 0 -10
-5 -10 -11z"/>
<path d="M3019 3888 c-5 -18 -6 -38 -1 -34 7 8 12 36 6 36 -2 0 -4 -1 -5 -2z"/>
<path d="M3319 3873 c-13 -16 -12 -17 4 -4 16 13 21 21 13 21 -2 0 -10 -8 -17
-17z"/>
<path d="M3840 3886 c0 -2 8 -10 18 -17 15 -13 16 -12 3 4 -13 16 -21 21 -21
13z"/>
<path d="M4040 3882 c0 -5 7 -9 15 -9 8 0 12 4 9 9 -3 4 -9 8 -15 8 -5 0 -9
-4 -9 -8z"/>
<path d="M3994 3845 c0 -19 3 -35 7 -35 8 0 6 56 -2 64 -3 3 -5 -10 -5 -29z"/>
<path d="M3746 3858 c3 -5 10 -6 15 -3 13 9 11 12 -6 12 -8 0 -12 -4 -9 -9z"/>
<path d="M3792 3851 c7 -9 13 -18 15 -20 1 -2 1 5 0 16 0 11 -7 20 -14 20 -10
0 -10 -4 -1 -16z"/>
<path d="M3914 3852 c11 -12 21 -20 24 -17 3 3 15 -3 26 -12 21 -18 21 -18 2
5 -11 12 -21 20 -24 17 -3 -3 -15 3 -26 12 -21 18 -21 18 -2 -5z"/>
<path d="M4028 3858 c5 -5 16 -8 23 -6 8 3 3 7 -10 11 -17 4 -21 3 -13 -5z"/>
<path d="M4177 3846 c-5 -12 -3 -15 5 -10 8 5 9 1 4 -12 -5 -14 -4 -16 4 -7 8
7 9 17 3 28 -9 16 -10 16 -16 1z"/>
<path d="M3556 3833 c-6 -14 -5 -15 5 -6 7 7 10 15 7 18 -3 3 -9 -2 -12 -12z"/>
<path d="M3586 3841 c-3 -4 6 -7 19 -7 14 0 22 2 19 5 -8 8 -34 10 -38 2z"/>
<path d="M3716 3833 c-6 -14 -5 -15 5 -6 7 7 10 15 7 18 -3 3 -9 -2 -12 -12z"/>
<path d="M3842 3838 c-15 -15 -15 -28 0 -28 6 0 8 3 5 7 -4 3 -2 12 4 20 14
16 7 17 -9 1z"/>
<path d="M3871 3827 c-13 -21 -12 -21 5 -5 10 10 16 20 13 22 -3 3 -11 -5 -18
-17z"/>
<path d="M9300 3840 c0 -4 7 -7 15 -6 23 3 26 12 5 13 -11 1 -20 -2 -20 -7z"/>
<path d="M9373 3831 c0 -11 5 -18 9 -15 4 3 5 11 1 19 -7 21 -12 19 -10 -4z"/>
<path d="M3755 3829 c-4 -6 -5 -12 -2 -15 2 -3 7 2 10 11 7 17 1 20 -8 4z"/>
<path d="M3675 3820 c-3 -5 -1 -10 4 -10 6 0 11 5 11 10 0 6 -2 10 -4 10 -3 0
-8 -4 -11 -10z"/>
<path d="M4323 3818 c-13 -16 -13 -48 0 -48 5 0 6 7 3 16 -4 9 -1 23 5 30 6 8
9 14 6 14 -2 0 -9 -6 -14 -12z"/>
<path d="M9270 3819 c0 -5 5 -7 10 -4 6 3 10 8 10 11 0 2 -4 4 -10 4 -5 0 -10
-5 -10 -11z"/>
<path d="M2955 3809 c-4 -6 -5 -12 -2 -15 2 -3 7 2 10 11 7 17 1 20 -8 4z"/>
<path d="M9230 3801 c0 -11 4 -22 9 -25 4 -3 6 6 3 19 -5 30 -12 33 -12 6z"/>
<path d="M3606 3798 c3 -5 10 -6 15 -3 13 9 11 12 -6 12 -8 0 -12 -4 -9 -9z"/>
<path d="M3714 3795 c3 -23 12 -26 13 -5 1 11 -2 20 -7 20 -4 0 -7 -7 -6 -15z"/>
<path d="M3933 3795 c0 -8 4 -12 9 -9 4 3 8 9 8 15 0 5 -4 9 -8 9 -5 0 -9 -7
-9 -15z"/>
<path d="M4115 3800 c3 -5 8 -10 11 -10 2 0 4 5 4 10 0 6 -5 10 -11 10 -5 0
-7 -4 -4 -10z"/>
<path d="M4394 3785 c3 -8 -2 -19 -12 -24 -9 -6 -12 -10 -7 -11 18 0 32 15 32
33 0 9 -5 17 -10 17 -5 0 -7 -7 -3 -15z"/>
<path d="M9195 3780 c-4 -12 -11 -17 -18 -14 -7 4 -8 3 -4 -1 14 -16 36 -14
30 3 -4 10 -2 13 5 8 8 -5 10 -2 6 8 -8 21 -11 20 -19 -4z"/>
<path d="M3046 3778 c3 -5 10 -6 15 -3 13 9 11 12 -6 12 -8 0 -12 -4 -9 -9z"/>
<path d="M3096 3782 c-3 -5 1 -9 9 -9 8 0 12 4 9 9 -3 4 -7 8 -9 8 -2 0 -6 -4
-9 -8z"/>
<path d="M3130 3780 c0 -5 5 -10 11 -10 5 0 7 5 4 10 -3 6 -8 10 -11 10 -2 0
-4 -4 -4 -10z"/>
<path d="M3550 3786 c0 -2 7 -7 16 -10 8 -3 12 -2 9 4 -6 10 -25 14 -25 6z"/>
<path d="M4020 3786 c0 -2 8 -10 18 -17 15 -13 16 -12 3 4 -13 16 -21 21 -21
13z"/>
<path d="M4226 3780 c5 -8 9 -18 9 -22 0 -3 3 -9 7 -13 3 -4 5 0 4 9 -1 9 -8
22 -16 29 -10 10 -11 9 -4 -3z"/>
<path d="M4462 3774 c10 -10 20 -16 22 -13 3 3 -5 11 -17 18 -21 13 -21 12 -5
-5z"/>
<path d="M9295 3780 c3 -5 8 -10 11 -10 2 0 4 5 4 10 0 6 -5 10 -11 10 -5 0
-7 -4 -4 -10z"/>
<path d="M4346 3764 c-24 -24 -19 -30 7 -8 12 10 24 20 26 21 2 2 -1 3 -7 3
-6 0 -18 -7 -26 -16z"/>
<path d="M3226 3758 c3 -5 10 -6 15 -3 13 9 11 12 -6 12 -8 0 -12 -4 -9 -9z"/>
<path d="M3505 3759 c-3 -4 2 -6 10 -5 21 3 28 13 10 13 -9 0 -18 -4 -20 -8z"/>
<path d="M3875 3760 c-3 -5 -1 -10 4 -10 6 0 11 5 11 10 0 6 -2 10 -4 10 -3 0
-8 -4 -11 -10z"/>
<path d="M3951 3767 c2 -2 11 -8 20 -15 12 -9 16 -9 16 1 0 7 -9 14 -20 14
-11 1 -18 1 -16 0z"/>
<path d="M4071 3767 c2 -1 13 -9 24 -17 19 -14 19 -14 6 3 -7 9 -18 17 -24 17
-6 0 -8 -1 -6 -3z"/>
<path d="M4270 3750 c-9 -6 -10 -10 -3 -10 6 0 15 5 18 10 8 12 4 12 -15 0z"/>
<path d="M4494 3748 c-4 -7 -3 -8 4 -4 7 4 12 2 12 -4 0 -6 5 -8 12 -4 8 5 9
2 5 -9 -3 -10 -2 -17 3 -17 6 0 10 5 10 11 0 5 4 8 10 4 5 -3 7 -13 4 -23 -5
-14 -4 -14 4 -3 10 13 -6 56 -16 46 -3 -2 -13 0 -23 5 -12 7 -20 6 -25 -2z"/>
<path d="M3415 3740 c3 -5 8 -10 11 -10 2 0 4 5 4 10 0 6 -5 10 -11 10 -5 0
-7 -4 -4 -10z"/>
<path d="M3790 3738 c0 -4 4 -8 9 -8 6 0 12 4 15 8 3 5 -1 9 -9 9 -8 0 -15 -4
-15 -9z"/>
<path d="M3835 3740 c-3 -5 -1 -10 4 -10 6 0 11 5 11 10 0 6 -2 10 -4 10 -3 0
-8 -4 -11 -10z"/>
<path d="M4039 3733 c-13 -16 -12 -17 4 -4 9 7 17 15 17 17 0 8 -8 3 -21 -13z"/>
<path d="M4415 3741 c6 -11 4 -13 -8 -8 -23 9 -21 0 2 -13 15 -7 19 -7 17 5
-1 8 -6 18 -11 22 -4 5 -5 2 0 -6z"/>
<path d="M9150 3741 c0 -6 4 -12 8 -15 5 -3 9 1 9 9 0 8 -4 15 -9 15 -4 0 -8
-4 -8 -9z"/>
<path d="M2956 3727 c3 -10 9 -15 12 -12 3 3 0 11 -7 18 -10 9 -11 8 -5 -6z"/>
<path d="M3615 3731 c-3 -5 -2 -12 3 -15 5 -3 9 1 9 9 0 17 -3 19 -12 6z"/>
<path d="M3879 3738 c-5 -18 -6 -38 -1 -34 7 8 12 36 6 36 -2 0 -4 -1 -5 -2z"/>
<path d="M4214 3720 c0 -13 4 -16 10 -10 7 7 7 13 0 20 -6 6 -10 3 -10 -10z"/>
<path d="M4299 3738 c-5 -18 -6 -38 -1 -34 7 8 12 36 6 36 -2 0 -4 -1 -5 -2z"/>
<path d="M9110 3731 c0 -6 4 -13 10 -16 6 -3 7 1 4 9 -7 18 -14 21 -14 7z"/>
<path d="M3235 3721 c-3 -5 -2 -12 3 -15 5 -3 9 1 9 9 0 17 -3 19 -12 6z"/>
<path d="M3650 3721 c0 -6 4 -13 10 -16 6 -3 7 1 4 9 -7 18 -14 21 -14 7z"/>
<path d="M3938 3712 c-11 -15 -11 -15 2 -6 8 6 23 10 33 8 11 -1 16 0 13 4
-13 12 -36 10 -48 -6z"/>
<path d="M4240 3726 c0 -2 8 -10 18 -17 15 -13 16 -12 3 4 -13 16 -21 21 -21
13z"/>
<path d="M4475 3720 c-3 -6 1 -7 9 -4 18 7 21 14 7 14 -6 0 -13 -4 -16 -10z"/>
<path d="M4585 3720 c-3 -5 -1 -10 4 -10 6 0 11 5 11 10 0 6 -2 10 -4 10 -3 0
-8 -4 -11 -10z"/>
<path d="M3833 3707 c0 -8 6 -14 14 -14 9 0 10 4 2 14 -6 7 -12 13 -14 13 -1
0 -2 -6 -2 -13z"/>
<path d="M4109 3703 c-13 -16 -12 -17 4 -4 16 13 21 21 13 21 -2 0 -10 -8 -17
-17z"/>
<path d="M4349 3703 c-13 -16 -12 -17 4 -4 16 13 21 21 13 21 -2 0 -10 -8 -17
-17z"/>
<path d="M3170 3700 c0 -5 5 -10 11 -10 5 0 7 5 4 10 -3 6 -8 10 -11 10 -2 0
-4 -4 -4 -10z"/>
<path d="M3495 3700 c3 -5 8 -10 11 -10 2 0 4 5 4 10 0 6 -5 10 -11 10 -5 0
-7 -4 -4 -10z"/>
<path d="M3595 3691 c-3 -5 -2 -12 3 -15 5 -3 9 1 9 9 0 17 -3 19 -12 6z"/>
<path d="M3789 3683 c-13 -16 -12 -17 4 -4 16 13 21 21 13 21 -2 0 -10 -8 -17
-17z"/>
<path d="M4053 3685 c0 -8 3 -13 5 -10 3 3 12 -1 21 -7 10 -8 9 -4 -3 10 -23
26 -23 26 -23 7z"/>
<path d="M4154 3686 c1 -8 5 -18 8 -22 4 -3 5 1 4 10 -1 8 -5 18 -8 22 -4 3
-5 -1 -4 -10z"/>
<path d="M4364 3678 c-12 -14 -13 -18 -3 -10 9 6 18 10 21 7 2 -3 5 2 5 10 0
19 0 19 -23 -7z"/>
<path d="M4571 3684 c0 -11 3 -14 6 -6 3 7 2 16 -1 19 -3 4 -6 -2 -5 -13z"/>
<path d="M4603 3693 c9 -2 15 -8 13 -12 -3 -4 1 -8 9 -8 11 0 12 4 4 14 -6 7
-19 12 -28 12 -13 -1 -13 -2 2 -6z"/>
<path d="M3219 3688 c-5 -18 -6 -38 -1 -34 7 8 12 36 6 36 -2 0 -4 -1 -5 -2z"/>
<path d="M3257 3675 c-4 -8 -3 -16 1 -19 4 -3 9 4 9 15 2 23 -3 25 -10 4z"/>
<path d="M3305 3680 c-3 -6 1 -7 9 -4 18 7 21 14 7 14 -6 0 -13 -4 -16 -10z"/>
<path d="M3620 3686 c0 -2 8 -10 18 -17 15 -13 16 -12 3 4 -13 16 -21 21 -21
13z"/>
<path d="M3679 3673 c-13 -16 -12 -17 4 -4 16 13 21 21 13 21 -2 0 -10 -8 -17
-17z"/>
<path d="M3946 3678 c3 -5 10 -6 15 -3 13 9 11 12 -6 12 -8 0 -12 -4 -9 -9z"/>
<path d="M4526 3681 c-3 -5 1 -11 9 -14 9 -4 12 -1 8 9 -6 16 -10 17 -17 5z"/>
<path d="M4655 3680 c-3 -5 -1 -10 4 -10 6 0 11 5 11 10 0 6 -2 10 -4 10 -3 0
-8 -4 -11 -10z"/>
<path d="M9070 3679 c0 -5 5 -7 10 -4 6 3 10 8 10 11 0 2 -4 4 -10 4 -5 0 -10
-5 -10 -11z"/>
<path d="M3915 3671 c-3 -5 -2 -12 3 -15 5 -3 9 1 9 9 0 17 -3 19 -12 6z"/>
<path d="M3960 3660 c-9 -6 -10 -10 -3 -10 6 0 15 5 18 10 8 12 4 12 -15 0z"/>
<path d="M4190 3656 c7 -7 13 -7 20 0 6 6 3 10 -10 10 -13 0 -16 -4 -10 -10z"/>
<path d="M4230 3666 c0 -2 7 -7 16 -10 8 -3 12 -2 9 4 -6 10 -25 14 -25 6z"/>
<path d="M4305 3659 c-3 -4 2 -6 10 -5 21 3 28 13 10 13 -9 0 -18 -4 -20 -8z"/>
<path d="M4513 3654 c16 -20 52 -30 41 -12 -4 5 -9 7 -12 4 -3 -3 -15 2 -26
11 -21 18 -21 18 -3 -3z"/>
<path d="M4595 3660 c6 -10 4 -12 -7 -7 -16 6 -20 -17 -5 -28 4 -3 5 -2 2 2
-3 3 3 11 12 18 13 9 13 14 3 20 -9 6 -11 4 -5 -5z"/>
<path d="M4375 3649 c-4 -6 -5 -12 -2 -15 2 -3 7 2 10 11 7 17 1 20 -8 4z"/>
<path d="M8973 3647 c0 -8 6 -14 14 -14 9 0 10 4 2 14 -6 7 -12 13 -14 13 -1
0 -2 -6 -2 -13z"/>
<path d="M3710 3641 c0 -6 4 -13 10 -16 6 -3 7 1 4 9 -7 18 -14 21 -14 7z"/>
<path d="M4070 3639 c0 -5 5 -7 10 -4 6 3 10 8 10 11 0 2 -4 4 -10 4 -5 0 -10
-5 -10 -11z"/>
<path d="M4154 3625 c0 -28 8 -24 13 5 2 11 -1 20 -5 20 -4 0 -8 -11 -8 -25z"/>
<path d="M4394 3638 c-4 -7 -4 -10 1 -6 4 4 15 2 24 -5 14 -11 14 -10 2 6 -16
20 -18 21 -27 5z"/>
<path d="M10153 3635 c0 -8 4 -12 9 -9 5 3 6 10 3 15 -9 13 -12 11 -12 -6z"/>
<path d="M4190 3636 c0 -2 8 -10 18 -17 15 -13 16 -12 3 4 -13 16 -21 21 -21
13z"/>
<path d="M4712 3631 c-11 -6 -9 -9 6 -13 15 -4 19 -2 15 8 -6 16 -4 16 -21 5z"/>
<path d="M3136 3622 c-3 -4 4 -9 15 -9 23 -2 25 3 4 10 -8 4 -16 3 -19 -1z"/>
<path d="M3330 3620 c0 -5 5 -10 11 -10 5 0 7 5 4 10 -3 6 -8 10 -11 10 -2 0
-4 -4 -4 -10z"/>
<path d="M3375 3620 c3 -5 8 -10 11 -10 2 0 4 5 4 10 0 6 -5 10 -11 10 -5 0
-7 -4 -4 -10z"/>
<path d="M3535 3620 c-3 -5 -1 -10 4 -10 6 0 11 5 11 10 0 6 -2 10 -4 10 -3 0
-8 -4 -11 -10z"/>
<path d="M3575 3620 c-3 -5 -1 -10 4 -10 6 0 11 5 11 10 0 6 -2 10 -4 10 -3 0
-8 -4 -11 -10z"/>
<path d="M4280 3615 c-7 -9 -11 -17 -9 -20 3 -2 10 5 17 15 14 24 10 26 -8 5z"/>
<path d="M4310 3626 c0 -2 7 -7 16 -10 8 -3 12 -2 9 4 -6 10 -25 14 -25 6z"/>
<path d="M4460 3626 c0 -2 8 -10 18 -17 15 -13 16 -12 3 4 -13 16 -21 21 -21
13z"/>
<path d="M8916 3621 c9 -9 34 -9 34 -1 0 5 -9 8 -20 7 -10 -1 -17 -3 -14 -6z"/>
<path d="M3670 3616 c0 -2 8 -10 18 -17 15 -13 16 -12 3 4 -13 16 -21 21 -21
13z"/>
<path d="M4382 3605 c15 -16 20 -17 30 -6 11 11 10 13 0 7 -7 -4 -21 -2 -30 5
-15 12 -15 11 0 -6z"/>
<path d="M4543 3604 c9 -11 15 -23 12 -26 -3 -2 2 -5 10 -5 10 0 12 4 5 12 -5
7 -6 16 -2 21 4 5 3 6 -2 2 -5 -4 -16 -2 -25 4 -12 10 -12 7 2 -8z"/>
<path d="M4623 3602 c10 -10 15 -21 12 -24 -3 -2 2 -5 10 -5 12 0 10 6 -7 24
-25 27 -39 32 -15 5z"/>
<path d="M4765 3600 c21 -24 26 -25 19 -6 -3 8 -13 17 -22 21 -13 5 -13 2 3
-15z"/>
<path d="M4053 3595 c0 -8 4 -12 9 -9 4 3 8 9 8 15 0 5 -4 9 -8 9 -5 0 -9 -7
-9 -15z"/>
<path d="M4431 3587 c-13 -21 -12 -21 5 -5 10 10 16 20 13 22 -3 3 -11 -5 -18
-17z"/>
<path d="M4513 3593 c0 -11 7 -20 14 -20 10 0 10 4 1 16 -7 9 -13 18 -15 20
-1 2 -1 -5 0 -16z"/>
<path d="M4589 3597 c6 -8 9 -16 6 -19 -3 -2 2 -5 10 -5 13 0 13 3 -2 19 -19
21 -31 25 -14 5z"/>
<path d="M4674 3575 c0 -14 4 -25 8 -25 4 0 7 9 5 20 -5 29 -13 33 -13 5z"/>
<path d="M4836 3587 c12 -7 19 -17 17 -24 -2 -6 0 -14 5 -17 5 -3 8 4 7 15 -1
20 -21 39 -40 38 -5 0 -1 -5 11 -12z"/>
<path d="M8950 3597 c0 -2 6 -10 14 -16 11 -9 16 -9 22 1 4 7 4 10 -1 6 -4 -4
-14 -3 -22 3 -7 6 -13 9 -13 6z"/>
<path d="M3195 3579 c-3 -4 2 -6 10 -5 21 3 28 13 10 13 -9 0 -18 -4 -20 -8z"/>
<path d="M3255 3579 c-3 -4 2 -6 10 -5 21 3 28 13 10 13 -9 0 -18 -4 -20 -8z"/>
<path d="M3530 3579 c0 -5 5 -7 10 -4 6 3 10 8 10 11 0 2 -4 4 -10 4 -5 0 -10
-5 -10 -11z"/>
<path d="M3575 3580 c3 -5 8 -10 11 -10 2 0 4 5 4 10 0 6 -5 10 -11 10 -5 0
-7 -4 -4 -10z"/>
<path d="M4226 3578 c3 -4 9 -8 15 -8 5 0 9 4 9 8 0 5 -7 9 -15 9 -8 0 -12 -4
-9 -9z"/>
<path d="M4799 3583 c-4 -30 -4 -105 0 -108 4 -2 6 23 7 56 0 32 -1 59 -3 59
-2 0 -4 -3 -4 -7z"/>
<path d="M3816 3567 c3 -10 9 -15 12 -12 3 3 0 11 -7 18 -10 9 -11 8 -5 -6z"/>
<path d="M4303 3564 c9 -11 14 -23 11 -26 -3 -3 -1 -8 4 -12 18 -11 8 25 -12
41 -21 18 -21 18 -3 -3z"/>
<path d="M4395 3569 c-4 -6 -5 -12 -2 -15 2 -3 7 2 10 11 7 17 1 20 -8 4z"/>
<path d="M3329 3557 c6 -8 7 -18 3 -22 -4 -5 -1 -5 6 -1 10 6 10 11 1 22 -6 8
-14 14 -16 14 -3 0 0 -6 6 -13z"/>
<path d="M4114 3554 c1 -8 4 -15 7 -16 2 -2 3 -1 2 1 -2 2 2 9 7 16 7 8 5 12
-4 12 -8 0 -13 -6 -12 -13z"/>
<path d="M4266 3562 c-3 -5 1 -9 9 -9 8 0 12 4 9 9 -3 4 -7 8 -9 8 -2 0 -6 -4
-9 -8z"/>
<path d="M4435 3559 c-3 -4 2 -6 10 -5 21 3 28 13 10 13 -9 0 -18 -4 -20 -8z"/>
<path d="M9950 3561 c0 -6 4 -12 8 -15 5 -3 9 1 9 9 0 8 -4 15 -9 15 -4 0 -8
-4 -8 -9z"/>
<path d="M10027 3559 c7 -7 15 -10 18 -7 3 3 -2 9 -12 12 -14 6 -15 5 -6 -5z"/>
<path d="M3175 3539 c-3 -4 2 -6 10 -5 21 3 28 13 10 13 -9 0 -18 -4 -20 -8z"/>
<path d="M3456 3538 c3 -4 11 -5 19 -1 21 7 19 12 -4 10 -11 0 -18 -5 -15 -9z"/>
<path d="M3535 3540 c3 -5 8 -10 11 -10 2 0 4 5 4 10 0 6 -5 10 -11 10 -5 0
-7 -4 -4 -10z"/>
<path d="M3570 3540 c0 -5 5 -10 11 -10 5 0 7 5 4 10 -3 6 -8 10 -11 10 -2 0
-4 -4 -4 -10z"/>
<path d="M4760 3535 c-7 -8 -16 -13 -20 -10 -5 3 -11 2 -14 -3 -10 -17 24 -8
41 10 9 10 14 18 11 18 -3 0 -11 -7 -18 -15z"/>
<path d="M5060 3540 c-11 -7 -11 -10 -2 -10 10 0 10 -5 2 -22 -11 -22 -10 -22
4 -4 9 10 13 24 9 29 -4 6 0 8 11 4 10 -4 15 -3 11 3 -8 12 -16 12 -35 0z"/>
<path d="M8860 3546 c0 -2 8 -10 18 -17 15 -13 16 -12 3 4 -13 16 -21 21 -21
13z"/>
<path d="M8933 3529 c-2 -23 3 -25 10 -4 4 8 3 16 -1 19 -4 3 -9 -4 -9 -15z"/>
<path d="M4255 3529 c-4 -6 -5 -12 -2 -15 2 -3 7 2 10 11 7 17 1 20 -8 4z"/>
<path d="M4996 3523 c-6 -14 -5 -15 5 -6 7 7 10 15 7 18 -3 3 -9 -2 -12 -12z"/>
<path d="M3961 3516 c-9 -11 -9 -16 1 -22 7 -4 10 -4 6 1 -4 4 -3 14 3 22 6 7
9 13 6 13 -2 0 -10 -6 -16 -14z"/>
<path d="M4459 3513 c-13 -16 -12 -17 4 -4 16 13 21 21 13 21 -2 0 -10 -8 -17
-17z"/>
<path d="M4539 3513 c-13 -16 -12 -17 4 -4 14 11 20 11 35 0 15 -13 16 -12 3
4 -7 9 -17 17 -21 17 -4 0 -14 -8 -21 -17z"/>
<path d="M4831 3507 c-13 -21 -12 -21 5 -5 10 10 16 20 13 22 -3 3 -11 -5 -18
-17z"/>
<path d="M5016 3511 c-4 -5 3 -7 14 -4 23 6 26 13 6 13 -8 0 -17 -4 -20 -9z"/>
<path d="M3230 3505 c0 -7 30 -13 34 -7 3 4 -4 9 -15 9 -10 1 -19 0 -19 -2z"/>
<path d="M3339 3508 c-5 -18 -6 -38 -1 -34 7 8 12 36 6 36 -2 0 -4 -1 -5 -2z"/>
<path d="M3395 3499 c-3 -4 2 -6 10 -5 21 3 28 13 10 13 -9 0 -18 -4 -20 -8z"/>
<path d="M4620 3506 c0 -2 8 -10 18 -17 15 -13 16 -12 3 4 -13 16 -21 21 -21
13z"/>
<path d="M5076 3493 c-6 -14 -5 -15 5 -6 7 7 10 15 7 18 -3 3 -9 -2 -12 -12z"/>
<path d="M8856 3498 c3 -5 10 -6 15 -3 13 9 11 12 -6 12 -8 0 -12 -4 -9 -9z"/>
<path d="M10470 3499 c0 -5 5 -7 10 -4 6 3 10 8 10 11 0 2 -4 4 -10 4 -5 0
-10 -5 -10 -11z"/>
<path d="M4859 3498 c-5 -18 -6 -38 -1 -34 7 8 12 36 6 36 -2 0 -4 -1 -5 -2z"/>
<path d="M4994 3492 c4 -7 2 -21 -5 -30 -12 -15 -11 -15 6 0 16 15 17 20 6 30
-11 11 -13 10 -7 0z"/>
<path d="M9955 3489 c-4 -6 -5 -12 -2 -15 2 -3 7 2 10 11 7 17 1 20 -8 4z"/>
<path d="M3190 3484 c0 -20 27 -37 36 -23 4 7 3 9 -4 5 -6 -3 -15 2 -21 11 -6
10 -11 13 -11 7z"/>
<path d="M4576 3473 c-6 -14 -5 -15 5 -6 7 7 10 15 7 18 -3 3 -9 -2 -12 -12z"/>
<path d="M4676 3479 c4 -8 30 -6 38 2 3 3 -5 5 -19 5 -13 0 -22 -3 -19 -7z"/>
<path d="M8753 3473 c0 -9 4 -10 14 -2 7 6 13 12 13 14 0 1 -6 2 -13 2 -8 0
-14 -6 -14 -14z"/>
<path d="M8814 3476 c1 -8 5 -18 8 -22 4 -3 5 1 4 10 -1 8 -5 18 -8 22 -4 3
-5 -1 -4 -10z"/>
<path d="M9399 3473 c-13 -16 -12 -17 4 -4 9 7 17 15 17 17 0 8 -8 3 -21 -13z"/>
<path d="M9556 3473 c-6 -14 -5 -15 5 -6 7 7 10 15 7 18 -3 3 -9 -2 -12 -12z"/>
<path d="M10030 3479 c0 -5 5 -7 10 -4 6 3 10 8 10 11 0 2 -4 4 -10 4 -5 0
-10 -5 -10 -11z"/>
<path d="M3414 3458 c-4 -7 -4 -10 1 -6 4 4 15 2 24 -5 14 -11 14 -10 2 6 -16
20 -18 21 -27 5z"/>
<path d="M4883 3458 c-11 -19 -13 -39 -1 -32 5 3 7 9 4 12 -3 3 -1 11 5 19 6
7 9 13 6 13 -3 0 -9 -6 -14 -12z"/>
<path d="M4915 3462 c3 -3 -1 -12 -7 -21 -8 -10 -4 -9 10 3 26 23 26 23 7 23
-8 0 -13 -3 -10 -5z"/>
<path d="M8719 3453 c-13 -16 -12 -17 4 -4 9 7 17 15 17 17 0 8 -8 3 -21 -13z"/>
<path d="M4074 3440 c0 -13 4 -16 10 -10 7 7 7 13 0 20 -6 6 -10 3 -10 -10z"/>
<path d="M4689 3443 c-13 -16 -12 -17 4 -4 16 13 21 21 13 21 -2 0 -10 -8 -17
-17z"/>
<path d="M5001 3440 c-13 -11 -18 -20 -13 -20 6 0 14 5 17 10 4 6 10 8 14 6 4
-3 8 1 8 9 0 8 -1 15 -1 15 -1 -1 -12 -10 -25 -20z"/>
<path d="M5155 3454 c2 -4 0 -14 -5 -23 -6 -13 -4 -17 10 -17 15 0 17 3 7 15
-7 8 -10 16 -9 18 2 3 1 7 -2 9 -3 2 -4 1 -1 -2z"/>
<path d="M3374 3436 c1 -8 5 -18 8 -22 4 -3 5 1 4 10 -1 8 -5 18 -8 22 -4 3
-5 -1 -4 -10z"/>
<path d="M3494 3436 c1 -8 5 -18 8 -22 4 -3 5 1 4 10 -1 8 -5 18 -8 22 -4 3
-5 -1 -4 -10z"/>
<path d="M3579 3448 c-5 -18 -6 -38 -1 -34 7 8 12 36 6 36 -2 0 -4 -1 -5 -2z"/>
<path d="M4230 3441 c0 -6 4 -13 10 -16 6 -3 7 1 4 9 -7 18 -14 21 -14 7z"/>
<path d="M4576 3442 c-3 -5 1 -9 9 -9 8 0 12 4 9 9 -3 4 -7 8 -9 8 -2 0 -6 -4
-9 -8z"/>
<path d="M4616 3441 c-3 -4 6 -7 19 -7 14 0 22 2 19 5 -8 8 -34 10 -38 2z"/>
<path d="M4760 3440 c-12 -7 -10 -9 7 -7 12 0 19 5 17 9 -6 10 -6 10 -24 -2z"/>
<path d="M4939 3433 c-13 -17 -13 -17 6 -3 11 8 22 16 24 17 2 2 0 3 -6 3 -6
0 -17 -8 -24 -17z"/>
<path d="M5200 3446 c0 -2 7 -7 16 -10 8 -3 12 -2 9 4 -6 10 -25 14 -25 6z"/>
<path d="M8637 3433 c-10 -9 -9 -23 1 -23 5 0 9 7 9 15 0 17 -1 18 -10 8z"/>
<path d="M3190 3420 c0 -5 5 -10 11 -10 5 0 7 5 4 10 -3 6 -8 10 -11 10 -2 0
-4 -4 -4 -10z"/>
<path d="M4506 3418 c3 -4 9 -8 15 -8 5 0 9 4 9 8 0 5 -7 9 -15 9 -8 0 -12 -4
-9 -9z"/>
<path d="M5107 3419 c7 -7 15 -10 18 -7 3 3 -2 9 -12 12 -14 6 -15 5 -6 -5z"/>
<path d="M5196 3422 c-3 -5 1 -9 9 -9 8 0 12 4 9 9 -3 4 -7 8 -9 8 -2 0 -6 -4
-9 -8z"/>
<path d="M8715 3419 c-3 -4 2 -6 10 -5 21 3 28 13 10 13 -9 0 -18 -4 -20 -8z"/>
<path d="M4469 3403 c-13 -16 -12 -17 4 -4 16 13 21 21 13 21 -2 0 -10 -8 -17
-17z"/>
<path d="M4549 3403 c-13 -16 -12 -17 4 -4 9 7 17 15 17 17 0 8 -8 3 -21 -13z"/>
<path d="M4657 3413 c-10 -9 -9 -23 1 -23 5 0 9 7 9 15 0 17 -1 18 -10 8z"/>
<path d="M4733 3405 c0 -8 3 -13 5 -10 3 3 12 -1 21 -7 10 -8 9 -4 -3 10 -23
26 -23 26 -23 7z"/>
<path d="M4955 3410 c-4 -6 -12 -7 -18 -4 -7 4 -8 3 -4 -1 13 -15 34 -14 34 1
0 17 -4 18 -12 4z"/>
<path d="M5017 3401 c-4 -17 -3 -21 5 -13 5 5 8 16 6 23 -3 8 -7 3 -11 -10z"/>
<path d="M5229 3403 c-13 -16 -12 -17 4 -4 9 7 17 15 17 17 0 8 -8 3 -21 -13z"/>
<path d="M5260 3416 c0 -2 7 -7 16 -10 8 -3 12 -2 9 4 -6 10 -25 14 -25 6z"/>
<path d="M9390 3416 c0 -2 8 -10 18 -17 15 -13 16 -12 3 4 -13 16 -21 21 -21
13z"/>
<path d="M4613 3393 c0 -9 4 -10 14 -2 7 6 13 12 13 14 0 1 -6 2 -13 2 -8 0
-14 -6 -14 -14z"/>
<path d="M4680 3406 c0 -2 8 -10 18 -17 15 -13 16 -12 3 4 -13 16 -21 21 -21
13z"/>
<path d="M4791 3387 c-13 -21 -12 -21 5 -5 10 10 16 20 13 22 -3 3 -11 -5 -18
-17z"/>
<path d="M4870 3403 c0 -6 8 -17 18 -24 16 -13 16 -13 2 6 -8 11 -16 22 -17
24 -2 2 -3 0 -3 -6z"/>
<path d="M5320 3400 c-8 -5 -10 -10 -5 -10 6 0 17 5 25 10 8 5 11 10 5 10 -5
0 -17 -5 -25 -10z"/>
<path d="M9196 3393 c-6 -14 -5 -15 5 -6 7 7 10 15 7 18 -3 3 -9 -2 -12 -12z"/>
<path d="M9500 3406 c0 -2 8 -10 18 -17 15 -13 16 -12 3 4 -13 16 -21 21 -21
13z"/>
<path d="M3614 3376 c1 -8 5 -18 8 -22 4 -3 5 1 4 10 -1 8 -5 18 -8 22 -4 3
-5 -1 -4 -10z"/>
<path d="M3659 3388 c-5 -18 -6 -38 -1 -34 7 8 12 36 6 36 -2 0 -4 -1 -5 -2z"/>
<path d="M3730 3380 c0 -5 5 -10 11 -10 5 0 7 5 4 10 -3 6 -8 10 -11 10 -2 0
-4 -4 -4 -10z"/>
<path d="M4015 3380 c3 -5 8 -10 11 -10 2 0 4 5 4 10 0 6 -5 10 -11 10 -5 0
-7 -4 -4 -10z"/>
<path d="M5039 3373 c-13 -16 -12 -17 4 -4 16 13 21 21 13 21 -2 0 -10 -8 -17
-17z"/>
<path d="M5267 3377 c2 -4 -1 -16 -9 -25 -11 -15 -11 -15 3 -5 9 7 19 11 22 8
4 -3 5 -2 2 2 -3 3 -1 11 5 17 6 8 3 12 -10 12 -10 0 -16 -4 -13 -9z"/>
<path d="M5348 3371 c4 -10 1 -12 -8 -6 -8 5 -11 4 -6 -3 4 -6 13 -9 21 -6 8
4 12 11 8 17 -4 6 0 8 11 4 9 -4 15 -3 11 2 -9 16 -43 9 -37 -8z"/>
<path d="M4376 3367 c3 -10 9 -15 12 -12 3 3 0 11 -7 18 -10 9 -11 8 -5 -6z"/>
<path d="M4730 3376 c0 -2 8 -10 18 -17 15 -13 16 -12 3 4 -13 16 -21 21 -21
13z"/>
<path d="M4926 3365 c-18 -14 -18 -14 1 -12 11 0 20 7 20 14 0 7 -1 13 -1 13
-1 0 -9 -7 -20 -15z"/>
<path d="M5102 3364 c10 -10 20 -16 22 -13 3 3 -5 11 -17 18 -21 13 -21 12 -5
-5z"/>
<path d="M3795 3361 c-3 -5 -2 -12 3 -15 5 -3 9 1 9 9 0 17 -3 19 -12 6z"/>
<path d="M4200 3360 c-9 -6 -10 -10 -3 -10 6 0 15 5 18 10 8 12 4 12 -15 0z"/>
<path d="M4635 3360 c-3 -5 -1 -10 4 -10 6 0 11 5 11 10 0 6 -2 10 -4 10 -3 0
-8 -4 -11 -10z"/>
<path d="M4666 3362 c-3 -5 1 -9 9 -9 8 0 12 4 9 9 -3 4 -7 8 -9 8 -2 0 -6 -4
-9 -8z"/>
<path d="M5073 3353 c0 -11 7 -20 14 -20 10 0 10 4 1 16 -7 9 -13 18 -15 20
-1 2 -1 -5 0 -16z"/>
<path d="M5400 3360 c0 -5 1 -12 3 -14 1 -2 -7 -14 -18 -27 -11 -13 -13 -19
-6 -12 11 10 17 9 28 -5 13 -16 13 -15 5 3 -5 11 -8 30 -6 43 2 12 2 22 -1 22
-3 0 -5 -4 -5 -10z"/>
<path d="M3495 3340 c-5 -8 42 -7 49 1 3 3 -6 5 -20 5 -14 0 -27 -3 -29 -6z"/>
<path d="M4990 3336 c7 -7 13 -7 20 0 6 6 3 10 -10 10 -13 0 -16 -4 -10 -10z"/>
<path d="M5190 3336 c7 -7 13 -7 20 0 6 6 3 10 -10 10 -13 0 -16 -4 -10 -10z"/>
<path d="M8490 3340 c0 -5 5 -10 11 -10 5 0 7 5 4 10 -3 6 -8 10 -11 10 -2 0
-4 -4 -4 -10z"/>
<path d="M3389 3323 c-13 -16 -12 -17 4 -4 16 13 21 21 13 21 -2 0 -10 -8 -17
-17z"/>
<path d="M4630 3337 c0 -2 6 -10 14 -16 11 -9 16 -9 22 1 4 7 4 10 -1 6 -4 -4
-14 -3 -22 3 -7 6 -13 9 -13 6z"/>
<path d="M4893 3325 c0 -8 4 -15 9 -15 4 0 8 4 8 9 0 6 -4 12 -8 15 -5 3 -9
-1 -9 -9z"/>
<path d="M5134 3329 c-3 -6 -2 -15 3 -20 5 -5 9 -1 9 11 0 23 -2 24 -12 9z"/>
<path d="M5304 3328 c2 -7 7 -13 12 -13 5 0 16 -4 24 -10 13 -8 13 -7 1 8 -7
9 -17 15 -21 12 -5 -3 -11 0 -13 5 -3 6 -4 5 -3 -2z"/>
<path d="M5461 3324 c0 -11 3 -14 6 -6 3 7 2 16 -1 19 -3 4 -6 -2 -5 -13z"/>
<path d="M3320 3320 c8 -5 20 -10 25 -10 6 0 3 5 -5 10 -8 5 -19 10 -25 10 -5
0 -3 -5 5 -10z"/>
<path d="M4450 3321 c0 -6 4 -13 10 -16 6 -3 7 1 4 9 -7 18 -14 21 -14 7z"/>
<path d="M4786 3322 c-2 -4 9 -7 25 -7 31 -1 30 7 -1 12 -10 1 -21 -1 -24 -5z"/>
<path d="M5439 3328 c-5 -18 -6 -38 -1 -34 7 8 12 36 6 36 -2 0 -4 -1 -5 -2z"/>
<path d="M9506 3322 c-3 -5 1 -9 9 -9 8 0 12 4 9 9 -3 4 -7 8 -9 8 -2 0 -6 -4
-9 -8z"/>
<path d="M4549 3303 c-13 -16 -12 -17 4 -4 9 7 17 15 17 17 0 8 -8 3 -21 -13z"/>
<path d="M3615 3299 c-3 -4 2 -6 10 -5 21 3 28 13 10 13 -9 0 -18 -4 -20 -8z"/>
<path d="M3714 3302 c4 -3 14 -7 22 -8 9 -1 13 0 10 4 -4 3 -14 7 -22 8 -9 1
-13 0 -10 -4z"/>
<path d="M3815 3300 c3 -5 8 -10 11 -10 2 0 4 5 4 10 0 6 -5 10 -11 10 -5 0
-7 -4 -4 -10z"/>
<path d="M4387 3299 c7 -7 15 -10 18 -7 3 3 -2 9 -12 12 -14 6 -15 5 -6 -5z"/>
<path d="M4839 3293 c-13 -16 -12 -17 4 -4 9 7 17 15 17 17 0 8 -8 3 -21 -13z"/>
<path d="M5025 3299 c-3 -4 2 -6 10 -5 21 3 28 13 10 13 -9 0 -18 -4 -20 -8z"/>
<path d="M5106 3300 c5 -8 9 -18 9 -22 0 -3 3 -9 7 -13 3 -4 5 0 4 9 -1 9 -8
22 -16 29 -10 10 -11 9 -4 -3z"/>
<path d="M5266 3302 c-2 -4 4 -8 14 -8 10 0 16 4 14 8 -3 4 -9 8 -14 8 -5 0
-11 -4 -14 -8z"/>
<path d="M8536 3302 c-3 -5 1 -9 9 -9 8 0 12 4 9 9 -3 4 -7 8 -9 8 -2 0 -6 -4
-9 -8z"/>
<path d="M4773 3285 c0 -8 4 -15 9 -15 4 0 8 4 8 9 0 6 -4 12 -8 15 -5 3 -9
-1 -9 -9z"/>
<path d="M5235 3290 c-4 -6 -10 -8 -14 -6 -4 3 -8 -1 -8 -9 0 -13 4 -12 19 2
18 16 22 23 14 23 -3 0 -8 -5 -11 -10z"/>
<path d="M5495 3290 c-4 -6 -11 -7 -17 -4 -7 4 -8 2 -4 -5 4 -6 11 -9 16 -6 4
3 10 -1 13 -7 3 -7 4 -3 4 10 -1 25 -3 26 -12 12z"/>
<path d="M5628 3293 c7 -3 16 -2 19 1 4 3 -2 6 -13 5 -11 0 -14 -3 -6 -6z"/>
<path d="M5662 3280 c0 -14 2 -19 5 -12 2 6 2 18 0 25 -3 6 -5 1 -5 -13z"/>
<path d="M3946 3282 c-3 -5 1 -9 9 -9 8 0 12 4 9 9 -3 4 -7 8 -9 8 -2 0 -6 -4
-9 -8z"/>
<path d="M4420 3286 c0 -2 8 -10 18 -17 15 -13 16 -12 3 4 -13 16 -21 21 -21
13z"/>
<path d="M4910 3278 c0 -6 3 -8 7 -5 3 4 11 2 18 -3 8 -7 12 -6 12 3 0 7 -9
14 -19 14 -10 1 -18 -3 -18 -9z"/>
<path d="M5373 3273 c0 -9 4 -10 14 -2 7 6 13 12 13 14 0 1 -6 2 -13 2 -8 0
-14 -6 -14 -14z"/>
<path d="M5607 3279 c7 -7 15 -10 18 -7 3 3 -2 9 -12 12 -14 6 -15 5 -6 -5z"/>
<path d="M9026 3278 c3 -4 9 -8 15 -8 5 0 9 4 9 8 0 5 -7 9 -15 9 -8 0 -12 -4
-9 -9z"/>
<path d="M9550 3286 c0 -2 7 -7 16 -10 8 -3 12 -2 9 4 -6 10 -25 14 -25 6z"/>
<path d="M5805 3257 c17 -24 20 -41 6 -32 -5 3 -12 1 -15 -4 -4 -5 2 -8 11 -7
25 4 25 58 1 62 -16 2 -17 0 -3 -19z"/>
<path d="M8363 3272 c-12 -8 -12 -36 0 -48 3 -4 5 3 2 14 -2 13 3 26 13 32 9
5 13 9 7 10 -5 0 -15 -4 -22 -8z"/>
<path d="M3653 3263 c4 -3 1 -13 -6 -22 -11 -14 -10 -14 5 -2 16 12 16 31 1
31 -4 0 -3 -3 0 -7z"/>
<path d="M3814 3256 c1 -8 5 -18 8 -22 4 -3 5 1 4 10 -1 8 -5 18 -8 22 -4 3
-5 -1 -4 -10z"/>
<path d="M3895 3260 c3 -5 8 -10 11 -10 2 0 4 5 4 10 0 6 -5 10 -11 10 -5 0
-7 -4 -4 -10z"/>
<path d="M4015 3260 c3 -5 8 -10 11 -10 2 0 4 5 4 10 0 6 -5 10 -11 10 -5 0
-7 -4 -4 -10z"/>
<path d="M4055 3260 c-3 -5 -1 -10 4 -10 6 0 11 5 11 10 0 6 -2 10 -4 10 -3 0
-8 -4 -11 -10z"/>
<path d="M5260 3265 c0 -2 6 -8 13 -14 10 -8 14 -7 14 2 0 8 -6 14 -14 14 -7
0 -13 -1 -13 -2z"/>
<path d="M5460 3266 c0 -2 8 -10 18 -17 15 -13 16 -12 3 4 -13 16 -21 21 -21
13z"/>
<path d="M5558 3263 c7 -3 16 -2 19 1 4 3 -2 6 -13 5 -11 0 -14 -3 -6 -6z"/>
<path d="M5023 3244 c9 -11 14 -23 11 -26 -3 -3 -1 -8 4 -12 18 -11 8 25 -12
41 -21 18 -21 18 -3 -3z"/>
<path d="M5721 3244 c0 -11 3 -14 6 -6 3 7 2 16 -1 19 -3 4 -6 -2 -5 -13z"/>
<path d="M3740 3240 c-9 -6 -10 -10 -3 -10 6 0 15 5 18 10 8 12 4 12 -15 0z"/>
<path d="M3859 3248 c-5 -18 -6 -38 -1 -34 7 8 12 36 6 36 -2 0 -4 -1 -5 -2z"/>
<path d="M4305 3240 c-3 -6 1 -7 9 -4 18 7 21 14 7 14 -6 0 -13 -4 -16 -10z"/>
<path d="M4600 3240 c-9 -6 -10 -10 -3 -10 6 0 15 5 18 10 8 12 4 12 -15 0z"/>
<path d="M5120 3246 c0 -2 8 -10 18 -17 15 -13 16 -12 3 4 -13 16 -21 21 -21
13z"/>
<path d="M5226 3238 c3 -5 9 -7 12 -4 3 3 12 0 21 -6 13 -10 14 -10 4 2 -15
16 -46 23 -37 8z"/>
<path d="M5354 3243 c3 -4 0 -13 -6 -22 -10 -12 -7 -12 8 2 11 9 23 16 25 15
2 -2 3 -1 1 1 -1 3 -10 6 -18 7 -9 1 -13 0 -10 -3z"/>
<path d="M5496 3233 c-6 -14 -5 -15 5 -6 7 7 10 15 7 18 -3 3 -9 -2 -12 -12z"/>
<path d="M5544 3228 c0 -17 2 -17 11 -4 8 10 16 12 23 6 9 -7 9 -7 2 2 -16 19
-36 17 -36 -4z"/>
<path d="M5646 3239 c3 -5 10 -6 16 -3 7 5 9 2 6 -8 -4 -8 0 -15 8 -15 19 0 1
30 -20 33 -9 1 -14 -2 -10 -7z"/>
<path d="M8626 3238 c3 -5 10 -6 15 -3 13 9 11 12 -6 12 -8 0 -12 -4 -9 -9z"/>
<path d="M4953 3225 c0 -8 4 -12 9 -9 5 3 6 10 3 15 -9 13 -12 11 -12 -6z"/>
<path d="M3934 3222 c4 -3 14 -7 22 -8 9 -1 13 0 10 4 -4 3 -14 7 -22 8 -9 1
-13 0 -10 -4z"/>
<path d="M4986 3222 c-3 -5 1 -9 9 -9 8 0 15 4 15 9 0 4 -4 8 -9 8 -6 0 -12
-4 -15 -8z"/>
<path d="M5430 3216 c7 -7 13 -7 20 0 6 6 3 10 -10 10 -13 0 -16 -4 -10 -10z"/>
<path d="M5757 3219 c7 -7 15 -10 18 -7 3 3 -2 9 -12 12 -14 6 -15 5 -6 -5z"/>
<path d="M5515 3211 c-3 -5 -2 -12 3 -15 5 -3 9 1 9 9 0 17 -3 19 -12 6z"/>
<path d="M5733 3205 c0 -8 5 -11 10 -8 7 4 8 -1 3 -12 -5 -15 -4 -16 9 -5 9 7
14 13 13 14 -2 1 -10 7 -19 14 -13 9 -16 9 -16 -3z"/>
<path d="M5852 3200 c0 -14 2 -19 5 -12 2 6 2 18 0 25 -3 6 -5 1 -5 -13z"/>
<path d="M5885 3204 c9 -9 19 -13 23 -10 3 4 0 11 -8 16 -24 15 -33 11 -15 -6z"/>
<path d="M8949 3203 c-13 -16 -12 -17 4 -4 16 13 21 21 13 21 -2 0 -10 -8 -17
-17z"/>
<path d="M3990 3206 c0 -2 7 -7 16 -10 8 -3 12 -2 9 4 -6 10 -25 14 -25 6z"/>
<path d="M4467 3199 c7 -7 15 -10 18 -7 3 3 -2 9 -12 12 -14 6 -15 5 -6 -5z"/>
<path d="M4650 3201 c0 -6 4 -13 10 -16 6 -3 7 1 4 9 -7 18 -14 21 -14 7z"/>
<path d="M5065 3201 c-2 -4 12 -7 30 -7 19 0 32 3 29 5 -7 8 -54 9 -59 2z"/>
<path d="M5400 3206 c0 -2 8 -10 18 -17 15 -13 16 -12 3 4 -13 16 -21 21 -21
13z"/>
<path d="M5490 3201 c0 -6 4 -13 10 -16 6 -3 7 1 4 9 -7 18 -14 21 -14 7z"/>
<path d="M5566 3198 c3 -5 10 -6 15 -3 13 9 11 12 -6 12 -8 0 -12 -4 -9 -9z"/>
<path d="M5986 3199 c3 -5 0 -9 -5 -9 -6 0 -11 -5 -11 -11 0 -8 5 -7 16 2 13
11 15 10 12 -6 -1 -10 3 -20 11 -23 10 -3 11 2 6 19 -7 21 -6 22 9 10 10 -8
14 -21 11 -32 -10 -32 2 -21 14 11 6 20 7 28 0 24 -5 -3 -17 0 -25 7 -19 15
-47 21 -38 8z"/>
<path d="M3859 3188 c-5 -18 -6 -38 -1 -34 7 8 12 36 6 36 -2 0 -4 -1 -5 -2z"/>
<path d="M4050 3180 c0 -5 5 -10 11 -10 5 0 7 5 4 10 -3 6 -8 10 -11 10 -2 0
-4 -4 -4 -10z"/>
<path d="M5670 3178 c6 -7 6 -18 -1 -29 -7 -14 -6 -17 5 -13 16 6 15 30 -2 44
-9 7 -9 7 -2 -2z"/>
<path d="M5798 3170 c12 -10 19 -20 17 -24 -3 -3 -2 -4 2 -1 15 11 11 34 -5
28 -9 -4 -13 -2 -9 4 3 5 -1 10 -10 10 -13 0 -12 -4 5 -17z"/>
<path d="M4349 3163 c-13 -16 -12 -17 4 -4 16 13 21 21 13 21 -2 0 -10 -8 -17
-17z"/>
<path d="M4875 3171 c-3 -5 -2 -12 3 -15 5 -3 9 1 9 9 0 17 -3 19 -12 6z"/>
<path d="M5050 3176 c0 -2 8 -10 18 -17 15 -13 16 -12 3 4 -13 16 -21 21 -21
13z"/>
<path d="M5614 3160 c0 -13 4 -16 10 -10 7 7 7 13 0 20 -6 6 -10 3 -10 -10z"/>
<path d="M5907 3167 c-3 -7 3 -13 13 -13 10 0 16 6 13 13 -3 7 -9 13 -13 13
-4 0 -10 -6 -13 -13z"/>
<path d="M4174 3156 c1 -8 5 -18 8 -22 4 -3 5 1 4 10 -1 8 -5 18 -8 22 -4 3
-5 -1 -4 -10z"/>
<path d="M4466 3158 c3 -5 10 -6 15 -3 13 9 11 12 -6 12 -8 0 -12 -4 -9 -9z"/>
<path d="M5220 3160 c-9 -6 -10 -10 -3 -10 6 0 15 5 18 10 8 12 4 12 -15 0z"/>
<path d="M5366 3161 c3 -3 21 -6 39 -6 19 -1 32 1 29 4 -3 3 -21 6 -39 6 -19
1 -32 -1 -29 -4z"/>
<path d="M5470 3160 c0 -5 5 -10 10 -10 6 0 10 5 10 10 0 6 -4 10 -10 10 -5 0
-10 -4 -10 -10z"/>
<path d="M5846 3161 c-3 -5 1 -11 9 -14 9 -4 12 -1 8 9 -6 16 -10 17 -17 5z"/>
<path d="M8190 3158 c0 -11 12 -10 30 2 12 7 10 9 -8 7 -12 0 -22 -5 -22 -9z"/>
<path d="M3896 3138 c3 -5 10 -6 15 -3 13 9 11 12 -6 12 -8 0 -12 -4 -9 -9z"/>
<path d="M3976 3138 c3 -5 10 -6 15 -3 13 9 11 12 -6 12 -8 0 -12 -4 -9 -9z"/>
<path d="M4080 3140 c-12 -7 -10 -9 7 -7 12 0 19 5 17 9 -6 10 -6 10 -24 -2z"/>
<path d="M4136 3138 c3 -5 10 -6 15 -3 13 9 11 12 -6 12 -8 0 -12 -4 -9 -9z"/>
<path d="M4495 3140 c3 -5 8 -10 11 -10 2 0 4 5 4 10 0 6 -5 10 -11 10 -5 0
-7 -4 -4 -10z"/>
<path d="M5708 3143 c6 -3 10 -9 6 -14 -8 -14 2 -11 14 4 8 10 6 13 -11 14
-12 0 -16 -1 -9 -4z"/>
<path d="M5954 3135 c3 -23 12 -26 13 -5 1 11 -2 20 -7 20 -4 0 -7 -7 -6 -15z"/>
<path d="M8226 3138 c3 -5 10 -6 15 -3 13 9 11 12 -6 12 -8 0 -12 -4 -9 -9z"/>
<path d="M4233 3125 c0 -8 4 -15 9 -15 4 0 8 4 8 9 0 6 -4 12 -8 15 -5 3 -9
-1 -9 -9z"/>
<path d="M5016 3127 c3 -10 9 -15 12 -12 3 3 0 11 -7 18 -10 9 -11 8 -5 -6z"/>
<path d="M5456 3127 c3 -10 9 -15 12 -12 3 3 0 11 -7 18 -10 9 -11 8 -5 -6z"/>
<path d="M3553 3115 c0 -8 4 -12 9 -9 5 3 6 10 3 15 -9 13 -12 11 -12 -6z"/>
<path d="M3936 3122 c-3 -5 1 -9 9 -9 8 0 12 4 9 9 -3 4 -7 8 -9 8 -2 0 -6 -4
-9 -8z"/>
<path d="M4015 3120 c-3 -5 -1 -10 4 -10 6 0 11 5 11 10 0 6 -2 10 -4 10 -3 0
-8 -4 -11 -10z"/>
<path d="M4790 3120 c0 -5 5 -10 11 -10 5 0 7 5 4 10 -3 6 -8 10 -11 10 -2 0
-4 -4 -4 -10z"/>
<path d="M4820 3126 c0 -2 8 -10 18 -17 15 -13 16 -12 3 4 -13 16 -21 21 -21
13z"/>
<path d="M5173 3115 c0 -8 4 -12 9 -9 4 3 8 9 8 15 0 5 -4 9 -8 9 -5 0 -9 -7
-9 -15z"/>
<path d="M5230 3119 c0 -5 5 -7 10 -4 6 3 10 8 10 11 0 2 -4 4 -10 4 -5 0 -10
-5 -10 -11z"/>
<path d="M5559 3113 c-12 -16 -12 -17 2 -6 9 7 20 9 24 5 5 -4 5 -1 1 6 -9 16
-11 15 -27 -5z"/>
<path d="M5680 3126 c0 -2 8 -10 18 -17 15 -13 16 -12 3 4 -13 16 -21 21 -21
13z"/>
<path d="M5739 3113 c-13 -16 -12 -17 4 -4 9 7 17 15 17 17 0 8 -8 3 -21 -13z"/>
<path d="M5810 3121 c0 -6 4 -13 10 -16 6 -3 7 1 4 9 -7 18 -14 21 -14 7z"/>
<path d="M5856 3113 c-6 -14 -5 -15 5 -6 7 7 10 15 7 18 -3 3 -9 -2 -12 -12z"/>
<path d="M6086 3122 c-3 -5 1 -9 9 -9 8 0 15 4 15 9 0 4 -4 8 -9 8 -6 0 -12
-4 -15 -8z"/>
<path d="M8126 3122 c-3 -5 1 -9 9 -9 8 0 12 4 9 9 -3 4 -7 8 -9 8 -2 0 -6 -4
-9 -8z"/>
<path d="M4176 3101 c-3 -5 2 -15 12 -22 15 -12 16 -12 5 2 -7 9 -10 19 -6 22
3 4 4 7 0 7 -3 0 -8 -4 -11 -9z"/>
<path d="M4293 3103 c4 -3 1 -13 -6 -22 -11 -14 -10 -14 5 -2 16 12 16 31 1
31 -4 0 -3 -3 0 -7z"/>
<path d="M4326 3098 c3 -5 10 -6 15 -3 13 9 11 12 -6 12 -8 0 -12 -4 -9 -9z"/>
<path d="M4495 3100 c3 -5 8 -10 11 -10 2 0 4 5 4 10 0 6 -5 10 -11 10 -5 0
-7 -4 -4 -10z"/>
<path d="M4530 3100 c0 -5 5 -10 11 -10 5 0 7 5 4 10 -3 6 -8 10 -11 10 -2 0
-4 -4 -4 -10z"/>
<path d="M5350 3096 c7 -7 13 -7 20 0 6 6 3 10 -10 10 -13 0 -16 -4 -10 -10z"/>
<path d="M5516 3079 c-12 -23 -12 -28 -2 -20 12 11 29 51 21 51 -2 0 -10 -14
-19 -31z"/>
<path d="M4076 3087 c3 -10 9 -15 12 -12 3 3 0 11 -7 18 -10 9 -11 8 -5 -6z"/>
<path d="M5459 3098 c-5 -18 -6 -38 -1 -34 7 8 12 36 6 36 -2 0 -4 -1 -5 -2z"/>
<path d="M5575 3090 c-4 -6 -10 -8 -15 -5 -5 3 -11 1 -14 -4 -8 -13 22 -7 36
7 7 7 9 12 6 12 -4 0 -10 -5 -13 -10z"/>
<path d="M5988 3093 c7 -3 16 -2 19 1 4 3 -2 6 -13 5 -11 0 -14 -3 -6 -6z"/>
<path d="M6116 3084 c1 -6 -2 -16 -7 -21 -6 -6 -4 -10 5 -10 8 0 12 5 9 10 -4
6 0 8 10 4 11 -4 14 -2 10 8 -3 8 -9 13 -13 10 -5 -3 -10 -2 -13 2 -2 5 -3 3
-1 -3z"/>
<path d="M4230 3076 c7 -7 13 -7 20 0 6 6 3 10 -10 10 -13 0 -16 -4 -10 -10z"/>
<path d="M5199 3073 c-13 -16 -12 -17 3 -5 19 15 42 7 32 -10 -4 -7 -2 -8 5
-4 9 6 9 11 0 22 -15 18 -24 18 -40 -3z"/>
<path d="M5416 3078 c3 -5 10 -6 15 -3 13 9 11 12 -6 12 -8 0 -12 -4 -9 -9z"/>
<path d="M5720 3086 c0 -2 8 -10 18 -17 15 -13 16 -12 3 4 -13 16 -21 21 -21
13z"/>
<path d="M5837 3071 c-10 -13 -10 -14 3 -5 8 6 41 10 72 9 32 -1 56 1 53 4 -3
3 -30 6 -61 6 -39 1 -58 -3 -67 -14z"/>
<path d="M4314 3062 c4 -3 14 -7 22 -8 9 -1 13 0 10 4 -4 3 -14 7 -22 8 -9 1
-13 0 -10 -4z"/>
<path d="M4374 3062 c4 -3 14 -7 22 -8 9 -1 13 0 10 4 -4 3 -14 7 -22 8 -9 1
-13 0 -10 -4z"/>
<path d="M4495 3060 c3 -5 8 -10 11 -10 2 0 4 5 4 10 0 6 -5 10 -11 10 -5 0
-7 -4 -4 -10z"/>
<path d="M4735 3060 c3 -5 8 -10 11 -10 2 0 4 5 4 10 0 6 -5 10 -11 10 -5 0
-7 -4 -4 -10z"/>
<path d="M5104 3062 c4 -3 14 -7 22 -8 9 -1 13 0 10 4 -4 3 -14 7 -22 8 -9 1
-13 0 -10 -4z"/>
<path d="M5639 3053 c-13 -16 -12 -17 4 -4 9 7 17 15 17 17 0 8 -8 3 -21 -13z"/>
<path d="M5674 3035 c0 -19 2 -32 5 -29 8 8 10 64 2 64 -4 0 -7 -16 -7 -35z"/>
<path d="M5780 3064 c0 -1 6 -7 14 -13 10 -9 15 -8 19 2 3 8 -3 13 -14 13 -11
0 -19 -1 -19 -2z"/>
<path d="M6020 3064 c0 -1 6 -7 14 -13 10 -9 15 -8 19 2 3 8 -3 13 -14 13 -11
0 -19 -1 -19 -2z"/>
<path d="M8155 3060 c3 -5 8 -10 11 -10 2 0 4 5 4 10 0 6 -5 10 -11 10 -5 0
-7 -4 -4 -10z"/>
<path d="M5475 3050 c-4 -6 -10 -8 -14 -6 -4 3 -8 -1 -8 -9 0 -13 4 -12 19 2
18 16 22 23 14 23 -3 0 -8 -5 -11 -10z"/>
<path d="M5529 3043 c-13 -16 -12 -17 4 -4 16 13 21 21 13 21 -2 0 -10 -8 -17
-17z"/>
<path d="M5942 3044 c10 -10 20 -16 22 -13 3 3 -5 11 -17 18 -21 13 -21 12 -5
-5z"/>
<path d="M6196 3047 c3 -10 9 -15 12 -12 3 3 0 11 -7 18 -10 9 -11 8 -5 -6z"/>
<path d="M6286 3043 c-4 -9 -2 -21 4 -27 8 -8 9 -6 4 8 -5 13 -4 17 4 12 8 -5
10 -2 6 8 -8 20 -10 20 -18 -1z"/>
<path d="M3267 3039 c7 -7 15 -10 18 -7 3 3 -2 9 -12 12 -14 6 -15 5 -6 -5z"/>
<path d="M4280 3035 c-7 -9 -11 -17 -9 -20 3 -2 10 5 17 15 14 24 10 26 -8 5z"/>
<path d="M4670 3039 c0 -5 5 -7 10 -4 6 3 10 8 10 11 0 2 -4 4 -10 4 -5 0 -10
-5 -10 -11z"/>
<path d="M4900 3046 c0 -2 8 -10 18 -17 15 -13 16 -12 3 4 -13 16 -21 21 -21
13z"/>
<path d="M5185 3040 c-3 -6 1 -7 9 -4 18 7 21 14 7 14 -6 0 -13 -4 -16 -10z"/>
<path d="M5711 3027 c-13 -21 -12 -21 5 -5 10 10 16 20 13 22 -3 3 -11 -5 -18
-17z"/>
<path d="M5760 3046 c0 -2 8 -10 18 -17 15 -13 16 -12 3 4 -13 16 -21 21 -21
13z"/>
<path d="M5819 3033 c-13 -16 -12 -17 4 -4 9 7 17 15 17 17 0 8 -8 3 -21 -13z"/>
<path d="M8059 3048 c-5 -18 -6 -38 -1 -34 7 8 12 36 6 36 -2 0 -4 -1 -5 -2z"/>
<path d="M8235 3040 c-3 -5 -1 -10 4 -10 6 0 11 5 11 10 0 6 -2 10 -4 10 -3 0
-8 -4 -11 -10z"/>
<path d="M5910 3036 c0 -2 8 -10 18 -17 15 -13 16 -12 3 4 -13 16 -21 21 -21
13z"/>
<path d="M4413 3015 c0 -8 4 -12 9 -9 5 3 6 10 3 15 -9 13 -12 11 -12 -6z"/>
<path d="M4495 3019 c-3 -4 2 -6 10 -5 21 3 28 13 10 13 -9 0 -18 -4 -20 -8z"/>
<path d="M4735 3020 c3 -5 8 -10 11 -10 2 0 4 5 4 10 0 6 -5 10 -11 10 -5 0
-7 -4 -4 -10z"/>
<path d="M4770 3020 c0 -5 5 -10 11 -10 5 0 7 5 4 10 -3 6 -8 10 -11 10 -2 0
-4 -4 -4 -10z"/>
<path d="M5147 3019 c7 -7 15 -10 18 -7 3 3 -2 9 -12 12 -14 6 -15 5 -6 -5z"/>
<path d="M5386 3018 c3 -4 9 -8 15 -8 5 0 9 4 9 8 0 5 -7 9 -15 9 -8 0 -12 -4
-9 -9z"/>
<path d="M5506 3020 c5 -8 9 -18 9 -22 0 -3 3 -9 7 -13 3 -4 5 0 4 9 -1 9 -8
22 -16 29 -10 10 -11 9 -4 -3z"/>
<path d="M5630 3016 c7 -7 13 -7 20 0 6 6 3 10 -10 10 -13 0 -16 -4 -10 -10z"/>
<path d="M5985 3019 c-3 -4 2 -6 10 -5 21 3 28 13 10 13 -9 0 -18 -4 -20 -8z"/>
<path d="M6315 3020 c-3 -6 1 -7 9 -4 18 7 21 14 7 14 -6 0 -13 -4 -16 -10z"/>
<path d="M5729 3004 c-14 -17 -21 -67 -8 -59 4 3 6 13 4 23 -1 9 4 25 13 35 8
9 13 17 10 17 -3 0 -12 -7 -19 -16z"/>
<path d="M5890 3016 c0 -2 8 -10 18 -17 15 -13 16 -12 3 4 -13 16 -21 21 -21
13z"/>
<path d="M6090 3016 c0 -2 8 -10 18 -17 15 -13 16 -12 3 4 -13 16 -21 21 -21
13z"/>
<path d="M6233 3005 c0 -8 4 -12 9 -9 5 3 6 10 3 15 -9 13 -12 11 -12 -6z"/>
<path d="M7990 3010 c-9 -6 -10 -10 -3 -10 6 0 15 5 18 10 8 12 4 12 -15 0z"/>
<path d="M3595 3000 c3 -5 8 -10 11 -10 2 0 4 5 4 10 0 6 -5 10 -11 10 -5 0
-7 -4 -4 -10z"/>
<path d="M4876 2993 c-6 -14 -5 -15 5 -6 7 7 10 15 7 18 -3 3 -9 -2 -12 -12z"/>
<path d="M5590 3002 c0 -5 7 -9 15 -9 8 0 12 4 9 9 -3 4 -9 8 -15 8 -5 0 -9
-4 -9 -8z"/>
<path d="M5776 2993 c-6 -14 -5 -15 5 -6 7 7 10 15 7 18 -3 3 -9 -2 -12 -12z"/>
<path d="M6031 3007 c2 -1 13 -9 24 -17 19 -14 19 -14 6 3 -7 9 -18 17 -24 17
-6 0 -8 -1 -6 -3z"/>
<path d="M6139 2993 c-12 -16 -12 -17 2 -6 9 7 19 10 22 6 4 -3 7 -1 7 5 0 17
-16 15 -31 -5z"/>
<path d="M5113 2985 c0 -8 4 -12 9 -9 5 3 6 10 3 15 -9 13 -12 11 -12 -6z"/>
<path d="M5870 2996 c0 -2 8 -10 18 -17 15 -13 16 -12 3 4 -13 16 -21 21 -21
13z"/>
<path d="M5949 2983 c-13 -16 -12 -17 4 -4 16 13 21 21 13 21 -2 0 -10 -8 -17
-17z"/>
<path d="M4435 2980 c-3 -5 -1 -10 4 -10 6 0 11 5 11 10 0 6 -2 10 -4 10 -3 0
-8 -4 -11 -10z"/>
<path d="M4696 2982 c-3 -4 4 -9 15 -9 23 -2 25 3 4 10 -8 4 -16 3 -19 -1z"/>
<path d="M4775 2980 c-3 -5 -1 -10 4 -10 6 0 11 5 11 10 0 6 -2 10 -4 10 -3 0
-8 -4 -11 -10z"/>
<path d="M4975 2980 c3 -5 8 -10 11 -10 2 0 4 5 4 10 0 6 -5 10 -11 10 -5 0
-7 -4 -4 -10z"/>
<path d="M5670 2978 c0 -4 4 -8 9 -8 6 0 12 4 15 8 3 5 -1 9 -9 9 -8 0 -15 -4
-15 -9z"/>
<path d="M6430 2980 c0 -5 5 -10 11 -10 5 0 7 5 4 10 -3 6 -8 10 -11 10 -2 0
-4 -4 -4 -10z"/>
<path d="M7910 2980 c0 -5 5 -10 10 -10 6 0 10 5 10 10 0 6 -4 10 -10 10 -5 0
-10 -4 -10 -10z"/>
<path d="M5615 2969 c-4 -6 -5 -12 -2 -15 2 -3 7 2 10 11 7 17 1 20 -8 4z"/>
<path d="M5964 2958 c-12 -14 -13 -18 -3 -10 9 6 18 10 21 7 2 -3 5 2 5 10 0
19 0 19 -23 -7z"/>
<path d="M6165 2970 c-16 -7 -17 -9 -3 -9 9 -1 20 4 23 9 7 11 7 11 -20 0z"/>
<path d="M6222 2964 c10 -10 20 -16 22 -13 3 3 -5 11 -17 18 -21 13 -21 12 -5
-5z"/>
<path d="M6380 2969 c0 -5 -4 -7 -10 -4 -14 9 -12 -1 3 -13 10 -8 13 -6 14 9
1 10 0 19 -3 19 -2 0 -4 -5 -4 -11z"/>
<path d="M4916 2962 c-3 -5 1 -9 9 -9 8 0 12 4 9 9 -3 4 -7 8 -9 8 -2 0 -6 -4
-9 -8z"/>
<path d="M5293 2951 c0 -11 5 -18 9 -15 4 3 5 11 1 19 -7 21 -12 19 -10 -4z"/>
<path d="M5484 2958 c-3 -4 5 -5 17 -3 30 6 36 14 9 12 -12 -1 -24 -5 -26 -9z"/>
<path d="M5635 2961 c-3 -5 -2 -12 3 -15 5 -3 9 1 9 9 0 17 -3 19 -12 6z"/>
<path d="M5790 2963 c0 -6 8 -17 18 -24 16 -13 16 -13 2 6 -8 11 -16 22 -17
24 -2 2 -3 0 -3 -6z"/>
<path d="M5853 2953 c0 -9 4 -10 14 -2 7 6 13 12 13 14 0 1 -6 2 -13 2 -8 0
-14 -6 -14 -14z"/>
<path d="M6031 2947 c-13 -21 -12 -21 5 -5 10 10 16 20 13 22 -3 3 -11 -5 -18
-17z"/>
<path d="M6266 2962 c-3 -5 1 -9 9 -9 8 0 12 4 9 9 -3 4 -7 8 -9 8 -2 0 -6 -4
-9 -8z"/>
<path d="M6311 2947 c-13 -21 -12 -21 5 -5 10 10 16 20 13 22 -3 3 -11 -5 -18
-17z"/>
<path d="M6193 2947 c0 -8 6 -14 14 -14 9 0 10 4 2 14 -6 7 -12 13 -14 13 -1
0 -2 -6 -2 -13z"/>
<path d="M7860 2939 c-7 -11 -9 -23 -7 -26 3 -2 8 5 12 18 6 17 9 19 16 8 6
-9 9 -10 9 -2 0 22 -19 24 -30 2z"/>
<path d="M7913 2945 c0 -8 4 -12 9 -9 5 3 6 10 3 15 -9 13 -12 11 -12 -6z"/>
<path d="M4814 2936 c1 -8 5 -18 8 -22 4 -3 5 1 4 10 -1 8 -5 18 -8 22 -4 3
-5 -1 -4 -10z"/>
<path d="M4970 2940 c0 -5 5 -10 11 -10 5 0 7 5 4 10 -3 6 -8 10 -11 10 -2 0
-4 -4 -4 -10z"/>
<path d="M5010 2939 c0 -5 5 -7 10 -4 6 3 10 8 10 11 0 2 -4 4 -10 4 -5 0 -10
-5 -10 -11z"/>
<path d="M5210 2939 c0 -5 5 -7 10 -4 6 3 10 8 10 11 0 2 -4 4 -10 4 -5 0 -10
-5 -10 -11z"/>
<path d="M5666 2942 c-2 -4 4 -8 14 -8 10 0 16 4 14 8 -3 4 -9 8 -14 8 -5 0
-11 -4 -14 -8z"/>
<path d="M5920 2935 c-7 -9 -11 -17 -9 -20 3 -2 10 5 17 15 14 24 10 26 -8 5z"/>
<path d="M6146 2942 c-2 -4 4 -8 14 -8 10 0 16 4 14 8 -3 4 -9 8 -14 8 -5 0
-11 -4 -14 -8z"/>
<path d="M7826 2935 c-11 -8 -17 -17 -14 -20 2 -3 13 4 23 15 21 23 18 25 -9
5z"/>
<path d="M5879 2935 c-1 -3 -2 -8 -3 -12 -1 -5 -5 -15 -10 -23 -7 -12 -6 -13
4 -3 13 12 23 43 14 43 -2 0 -5 -2 -5 -5z"/>
<path d="M5977 2933 c-10 -9 -9 -23 1 -23 5 0 9 7 9 15 0 17 -1 18 -10 8z"/>
<path d="M6049 2924 c-14 -17 -21 -67 -8 -59 4 3 6 13 4 23 -1 9 4 25 13 35 8
9 13 17 10 17 -3 0 -12 -7 -19 -16z"/>
<path d="M6247 2918 c9 -10 17 -18 17 -18 1 0 2 8 2 18 0 10 -8 18 -18 18 -16
0 -16 -2 -1 -18z"/>
<path d="M6339 2938 c-5 -18 -6 -38 -1 -34 7 8 12 36 6 36 -2 0 -4 -1 -5 -2z"/>
<path d="M5726 2918 c3 -5 10 -6 15 -3 13 9 11 12 -6 12 -8 0 -12 -4 -9 -9z"/>
<path d="M6071 2907 c-13 -21 -12 -21 5 -5 10 10 16 20 13 22 -3 3 -11 -5 -18
-17z"/>
<path d="M6473 2916 c-3 -6 -3 -8 2 -4 4 4 13 3 20 -2 8 -7 12 -5 12 3 0 16
-25 18 -34 3z"/>
<path d="M6560 2920 c-8 -5 -10 -10 -5 -10 6 0 17 5 25 10 8 5 11 10 5 10 -5
0 -17 -5 -25 -10z"/>
<path d="M6639 2913 c-13 -17 -13 -17 6 -3 11 8 22 16 24 17 2 2 0 3 -6 3 -6
0 -17 -8 -24 -17z"/>
<path d="M7965 2920 c-3 -6 1 -7 9 -4 18 7 21 14 7 14 -6 0 -13 -4 -16 -10z"/>
<path d="M6430 2916 c0 -2 8 -10 18 -17 15 -13 16 -12 3 4 -13 16 -21 21 -21
13z"/>
<path d="M6670 2910 c-9 -6 -10 -10 -3 -10 6 0 15 5 18 10 8 12 4 12 -15 0z"/>
<path d="M4556 2893 c-6 -14 -5 -15 5 -6 7 7 10 15 7 18 -3 3 -9 -2 -12 -12z"/>
<path d="M4854 2902 c4 -3 14 -7 22 -8 9 -1 13 0 10 4 -4 3 -14 7 -22 8 -9 1
-13 0 -10 -4z"/>
<path d="M5175 2900 c-3 -5 -1 -10 4 -10 6 0 11 5 11 10 0 6 -2 10 -4 10 -3 0
-8 -4 -11 -10z"/>
<path d="M6195 2902 c3 -3 -1 -12 -7 -21 -8 -10 -4 -9 10 3 26 23 26 23 7 23
-8 0 -13 -3 -10 -5z"/>
<path d="M6359 2893 c-13 -16 -12 -17 4 -4 16 13 21 21 13 21 -2 0 -10 -8 -17
-17z"/>
<path d="M6580 2904 c0 -1 8 -8 17 -15 9 -8 14 -9 10 -2 -4 6 -1 13 5 16 7 3
3 4 -9 4 -13 -1 -23 -2 -23 -3z"/>
<path d="M7915 2901 c-3 -5 -2 -12 3 -15 5 -3 9 1 9 9 0 17 -3 19 -12 6z"/>
<path d="M6413 2887 c0 -7 9 -14 20 -14 11 -1 18 -1 16 0 -2 2 -11 8 -20 15
-12 9 -16 9 -16 -1z"/>
<path d="M6530 2896 c0 -2 8 -10 18 -17 15 -13 16 -12 3 4 -13 16 -21 21 -21
13z"/>
<path d="M6736 2883 c-6 -14 -5 -15 5 -6 7 7 10 15 7 18 -3 3 -9 -2 -12 -12z"/>
<path d="M7788 2893 c7 -3 16 -2 19 1 4 3 -2 6 -13 5 -11 0 -14 -3 -6 -6z"/>
<path d="M4820 2880 c-9 -6 -10 -10 -3 -10 6 0 15 5 18 10 8 12 4 12 -15 0z"/>
<path d="M5054 2876 c1 -8 5 -18 8 -22 4 -3 5 1 4 10 -1 8 -5 18 -8 22 -4 3
-5 -1 -4 -10z"/>
<path d="M5950 2885 c0 -7 30 -13 34 -7 3 4 -4 9 -15 9 -10 1 -19 0 -19 -2z"/>
<path d="M6219 2873 c-13 -17 -13 -17 6 -3 11 8 22 16 24 17 2 2 0 3 -6 3 -6
0 -17 -8 -24 -17z"/>
<path d="M6269 2877 c6 -8 9 -16 6 -19 -3 -2 2 -5 10 -5 13 0 13 3 -2 19 -19
21 -31 25 -14 5z"/>
<path d="M6513 2873 c0 -11 7 -20 14 -20 10 0 10 4 1 16 -7 9 -13 18 -15 20
-1 2 -1 -5 0 -16z"/>
<path d="M6670 2880 c0 -5 5 -10 11 -10 5 0 7 5 4 10 -3 6 -8 10 -11 10 -2 0
-4 -4 -4 -10z"/>
<path d="M6857 2877 c-10 -26 -9 -26 13 -22 22 4 28 -10 8 -18 -8 -4 -9 -6 -2
-6 17 -1 37 26 29 39 -5 8 -10 8 -20 0 -10 -8 -14 -7 -17 7 -3 17 -4 17 -11 0z"/>
<path d="M6757 2873 c-4 -6 0 -13 8 -17 8 -3 17 0 21 6 4 6 3 8 -4 4 -5 -3
-12 -1 -14 6 -3 8 -6 9 -11 1z"/>
<path d="M5295 2860 c3 -5 8 -10 11 -10 2 0 4 5 4 10 0 6 -5 10 -11 10 -5 0
-7 -4 -4 -10z"/>
<path d="M5835 2861 c-3 -5 -2 -12 3 -15 5 -3 9 1 9 9 0 17 -3 19 -12 6z"/>
<path d="M5866 2858 c3 -4 9 -8 15 -8 5 0 9 4 9 8 0 5 -7 9 -15 9 -8 0 -12 -4
-9 -9z"/>
<path d="M5990 2866 c0 -2 7 -7 16 -10 8 -3 12 -2 9 4 -6 10 -25 14 -25 6z"/>
<path d="M6315 2861 c-3 -5 -2 -12 3 -15 5 -3 9 1 9 9 0 17 -3 19 -12 6z"/>
<path d="M6349 2858 c11 -15 11 -21 0 -35 -12 -17 -12 -17 6 0 19 17 19 17 0
35 -18 16 -18 16 -6 0z"/>
<path d="M6560 2860 c-9 -6 -10 -10 -3 -10 6 0 15 5 18 10 8 12 4 12 -15 0z"/>
<path d="M7786 2859 c2 -4 13 -7 24 -6 23 2 17 10 -10 12 -10 1 -17 -2 -14 -6z"/>
<path d="M5709 2843 c-13 -16 -12 -17 4 -4 16 13 21 21 13 21 -2 0 -10 -8 -17
-17z"/>
<path d="M6169 2843 c-13 -16 -12 -17 4 -4 16 13 21 21 13 21 -2 0 -10 -8 -17
-17z"/>
<path d="M6457 2853 c-10 -9 -9 -23 1 -23 5 0 9 7 9 15 0 17 -1 18 -10 8z"/>
<path d="M6795 2850 c-3 -5 -1 -10 4 -10 6 0 11 5 11 10 0 6 -2 10 -4 10 -3 0
-8 -4 -11 -10z"/>
<path d="M6831 2844 c0 -11 3 -14 6 -6 3 7 2 16 -1 19 -3 4 -6 -2 -5 -13z"/>
<path d="M4119 2833 c-13 -16 -12 -17 4 -4 16 13 21 21 13 21 -2 0 -10 -8 -17
-17z"/>
<path d="M4676 2838 c3 -5 10 -6 15 -3 13 9 11 12 -6 12 -8 0 -12 -4 -9 -9z"/>
<path d="M5106 2842 c-3 -5 1 -9 9 -9 8 0 12 4 9 9 -3 4 -7 8 -9 8 -2 0 -6 -4
-9 -8z"/>
<path d="M5379 2848 c-5 -18 -6 -38 -1 -34 7 8 12 36 6 36 -2 0 -4 -1 -5 -2z"/>
<path d="M6046 2838 c3 -5 10 -6 15 -3 13 9 11 12 -6 12 -8 0 -12 -4 -9 -9z"/>
<path d="M6590 2838 c0 -6 3 -8 7 -5 3 4 13 1 22 -6 14 -11 14 -10 2 6 -15 20
-31 22 -31 5z"/>
<path d="M7695 2840 c-3 -5 -1 -10 4 -10 6 0 11 5 11 10 0 6 -2 10 -4 10 -3 0
-8 -4 -11 -10z"/>
<path d="M7730 2840 c0 -4 7 -7 15 -6 23 3 26 12 5 13 -11 1 -20 -2 -20 -7z"/>
<path d="M5935 2831 c-3 -5 -2 -12 3 -15 5 -3 9 1 9 9 0 17 -3 19 -12 6z"/>
<path d="M6193 2825 c0 -8 4 -12 9 -9 5 3 6 10 3 15 -9 13 -12 11 -12 -6z"/>
<path d="M5339 2828 c-5 -18 -6 -38 -1 -34 7 8 12 36 6 36 -2 0 -4 -1 -5 -2z"/>
<path d="M5535 2820 c-3 -5 -1 -10 4 -10 6 0 11 5 11 10 0 6 -2 10 -4 10 -3 0
-8 -4 -11 -10z"/>
<path d="M6000 2820 c-9 -6 -10 -10 -3 -10 6 0 15 5 18 10 8 12 4 12 -15 0z"/>
<path d="M6225 2819 c-3 -4 2 -6 10 -5 21 3 28 13 10 13 -9 0 -18 -4 -20 -8z"/>
<path d="M6273 2807 c-1 -11 -1 -18 0 -16 2 2 8 11 15 20 9 12 9 16 -1 16 -7
0 -14 -9 -14 -20z"/>
<path d="M6755 2822 c3 -3 -1 -12 -7 -21 -8 -10 -4 -9 10 3 26 23 26 23 7 23
-8 0 -13 -3 -10 -5z"/>
<path d="M6790 2826 c0 -2 7 -7 16 -10 8 -3 12 -2 9 4 -6 10 -25 14 -25 6z"/>
<path d="M6899 2828 c0 -2 -2 -13 -3 -25 -2 -19 0 -21 12 -11 9 8 10 14 3 16
-6 2 -9 8 -5 13 3 5 3 9 0 9 -3 0 -6 -1 -7 -2z"/>
<path d="M6494 2809 c-3 -6 -2 -15 3 -20 5 -5 9 -1 9 11 0 23 -2 24 -12 9z"/>
<path d="M4910 2799 c0 -5 5 -7 10 -4 6 3 10 8 10 11 0 2 -4 4 -10 4 -5 0 -10
-5 -10 -11z"/>
<path d="M5855 2800 c-2 -3 5 -6 15 -7 11 -1 22 2 24 5 3 4 -4 8 -15 8 -11 0
-22 -3 -24 -6z"/>
<path d="M6107 2799 c7 -7 15 -10 18 -7 3 3 -2 9 -12 12 -14 6 -15 5 -6 -5z"/>
<path d="M6419 2793 c-13 -16 -12 -17 3 -5 9 8 23 10 29 6 8 -4 9 -3 5 4 -10
17 -21 15 -37 -5z"/>
<path d="M6694 2802 c4 -3 14 -7 22 -8 9 -1 13 0 10 4 -4 3 -14 7 -22 8 -9 1
-13 0 -10 -4z"/>
<path d="M6786 2802 c-3 -5 1 -9 9 -9 8 0 12 4 9 9 -3 4 -7 8 -9 8 -2 0 -6 -4
-9 -8z"/>
<path d="M7056 2802 c-6 -10 21 -27 38 -23 5 1 6 -7 3 -19 -3 -11 -1 -18 4
-14 5 3 9 13 9 22 1 14 4 13 20 -7 11 -13 20 -18 20 -13 0 6 -5 14 -10 17 -6
4 -7 11 -4 17 4 6 2 8 -4 4 -6 -3 -14 -2 -17 4 -5 8 -11 8 -20 0 -10 -8 -16
-7 -23 6 -5 10 -12 12 -16 6z"/>
<path d="M7755 2800 c-3 -5 -1 -10 4 -10 6 0 11 5 11 10 0 6 -2 10 -4 10 -3 0
-8 -4 -11 -10z"/>
<path d="M6175 2791 c-3 -5 -2 -12 3 -15 5 -3 9 1 9 9 0 17 -3 19 -12 6z"/>
<path d="M7620 2796 c0 -2 7 -7 16 -10 8 -3 12 -2 9 4 -6 10 -25 14 -25 6z"/>
<path d="M5375 2781 c-3 -5 -2 -12 3 -15 5 -3 9 1 9 9 0 17 -3 19 -12 6z"/>
<path d="M5650 2779 c0 -5 5 -7 10 -4 6 3 10 8 10 11 0 2 -4 4 -10 4 -5 0 -10
-5 -10 -11z"/>
<path d="M5975 2780 c-3 -5 -1 -10 4 -10 6 0 11 5 11 10 0 6 -2 10 -4 10 -3 0
-8 -4 -11 -10z"/>
<path d="M6921 2776 c-9 -11 -9 -16 1 -22 7 -4 10 -4 6 1 -4 4 -3 14 3 22 6 7
9 13 6 13 -2 0 -10 -6 -16 -14z"/>
<path d="M6973 2775 c0 -8 4 -12 9 -9 5 3 6 10 3 15 -9 13 -12 11 -12 -6z"/>
<path d="M7016 2782 c-2 -4 -1 -14 3 -20 6 -10 11 -9 21 3 11 13 10 14 -5 9
-13 -5 -16 -4 -11 4 4 7 5 12 2 12 -3 0 -7 -4 -10 -8z"/>
<path d="M7607 2769 c4 -13 8 -18 11 -10 2 7 -1 18 -6 23 -8 8 -9 4 -5 -13z"/>
<path d="M7666 2779 c4 -8 30 -6 38 2 3 3 -5 5 -19 5 -13 0 -22 -3 -19 -7z"/>
<path d="M6804 2758 l-19 -23 23 19 c12 11 22 21 22 23 0 8 -8 2 -26 -19z"/>
<path d="M5769 2757 c6 -8 7 -18 3 -22 -4 -5 -1 -5 6 -1 10 6 10 11 1 22 -6 8
-14 14 -16 14 -3 0 0 -6 6 -13z"/>
<path d="M6070 2760 c0 -5 5 -10 11 -10 5 0 7 5 4 10 -3 6 -8 10 -11 10 -2 0
-4 -4 -4 -10z"/>
<path d="M6420 2766 c0 -2 8 -10 18 -17 15 -13 16 -12 3 4 -13 16 -21 21 -21
13z"/>
<path d="M7055 2759 c-4 -6 -4 -13 -1 -16 3 -4 6 -1 6 6 0 7 5 9 12 5 7 -4 8
-3 4 4 -9 15 -13 15 -21 1z"/>
<path d="M7570 2758 c0 -4 4 -8 9 -8 6 0 12 4 15 8 3 5 -1 9 -9 9 -8 0 -15 -4
-15 -9z"/>
<path d="M5496 2738 c3 -5 10 -6 15 -3 13 9 11 12 -6 12 -8 0 -12 -4 -9 -9z"/>
<path d="M5975 2739 c-3 -4 2 -6 10 -5 21 3 28 13 10 13 -9 0 -18 -4 -20 -8z"/>
<path d="M6216 2742 c-3 -5 1 -9 9 -9 8 0 12 4 9 9 -3 4 -7 8 -9 8 -2 0 -6 -4
-9 -8z"/>
<path d="M6530 2739 c0 -5 5 -7 10 -4 6 3 10 8 10 11 0 2 -4 4 -10 4 -5 0 -10
-5 -10 -11z"/>
<path d="M7116 2733 c-6 -14 -5 -15 5 -6 7 7 10 15 7 18 -3 3 -9 -2 -12 -12z"/>
<path d="M5395 2720 c3 -5 8 -10 11 -10 2 0 4 5 4 10 0 6 -5 10 -11 10 -5 0
-7 -4 -4 -10z"/>
<path d="M5695 2720 c-3 -5 -1 -10 4 -10 6 0 11 5 11 10 0 6 -2 10 -4 10 -3 0
-8 -4 -11 -10z"/>
<path d="M5870 2726 c0 -2 7 -7 16 -10 8 -3 12 -2 9 4 -6 10 -25 14 -25 6z"/>
<path d="M5934 2716 c1 -8 5 -18 8 -22 4 -3 5 1 4 10 -1 8 -5 18 -8 22 -4 3
-5 -1 -4 -10z"/>
<path d="M6031 2713 c7 -12 15 -20 18 -17 3 2 -3 12 -13 22 -17 16 -18 16 -5
-5z"/>
<path d="M6653 2711 c0 -11 5 -18 9 -15 4 3 5 11 1 19 -7 21 -12 19 -10 -4z"/>
<path d="M6697 2715 c-4 -8 -3 -16 1 -19 4 -3 9 4 9 15 2 23 -3 25 -10 4z"/>
<path d="M6894 2716 c1 -8 5 -18 8 -22 4 -3 5 1 4 10 -1 8 -5 18 -8 22 -4 3
-5 -1 -4 -10z"/>
<path d="M7145 2720 c-3 -6 1 -7 9 -4 18 7 21 14 7 14 -6 0 -13 -4 -16 -10z"/>
<path d="M7548 2723 c7 -3 16 -2 19 1 4 3 -2 6 -13 5 -11 0 -14 -3 -6 -6z"/>
<path d="M6259 2708 c-5 -18 -6 -38 -1 -34 7 8 12 36 6 36 -2 0 -4 -1 -5 -2z"/>
<path d="M6514 2702 c4 -3 14 -7 22 -8 9 -1 13 0 10 4 -4 3 -14 7 -22 8 -9 1
-13 0 -10 -4z"/>
<path d="M6755 2699 c-3 -4 2 -6 10 -5 21 3 28 13 10 13 -9 0 -18 -4 -20 -8z"/>
<path d="M6853 2689 c-2 -23 3 -25 10 -4 4 8 3 16 -1 19 -4 3 -9 -4 -9 -15z"/>
<path d="M7095 2700 c-3 -5 -1 -10 4 -10 6 0 11 5 11 10 0 6 -2 10 -4 10 -3 0
-8 -4 -11 -10z"/>
<path d="M7356 2702 c-3 -5 1 -9 9 -9 8 0 12 4 9 9 -3 4 -7 8 -9 8 -2 0 -6 -4
-9 -8z"/>
<path d="M5755 2689 c-4 -6 -5 -12 -2 -15 2 -3 7 2 10 11 7 17 1 20 -8 4z"/>
<path d="M6370 2679 c0 -5 5 -7 10 -4 6 3 10 8 10 11 0 2 -4 4 -10 4 -5 0 -10
-5 -10 -11z"/>
<path d="M7375 2661 c-3 -5 -2 -12 3 -15 5 -3 9 1 9 9 0 17 -3 19 -12 6z"/>
<path d="M6273 2645 c0 -8 4 -12 9 -9 5 3 6 10 3 15 -9 13 -12 11 -12 -6z"/>
<path d="M3390 2639 c0 -5 5 -7 10 -4 6 3 10 8 10 11 0 2 -4 4 -10 4 -5 0 -10
-5 -10 -11z"/>
<path d="M4706 2638 c3 -5 10 -6 15 -3 13 9 11 12 -6 12 -8 0 -12 -4 -9 -9z"/>
<path d="M6110 2646 c0 -2 7 -7 16 -10 8 -3 12 -2 9 4 -6 10 -25 14 -25 6z"/>
<path d="M4833 2605 c0 -8 4 -15 9 -15 4 0 8 4 8 9 0 6 -4 12 -8 15 -5 3 -9
-1 -9 -9z"/>
<path d="M8793 2605 c0 -8 4 -12 9 -9 5 3 6 10 3 15 -9 13 -12 11 -12 -6z"/>
<path d="M6400 2560 c-9 -6 -10 -10 -3 -10 6 0 15 5 18 10 8 12 4 12 -15 0z"/>
<path d="M6079 2473 c-13 -16 -12 -17 4 -4 16 13 21 21 13 21 -2 0 -10 -8 -17
-17z"/>
<path d="M8275 2480 c3 -5 8 -10 11 -10 2 0 4 5 4 10 0 6 -5 10 -11 10 -5 0
-7 -4 -4 -10z"/>
<path d="M5640 2440 c-9 -6 -10 -10 -3 -10 6 0 15 5 18 10 8 12 4 12 -15 0z"/>
<path d="M5584 2382 c4 -3 14 -7 22 -8 9 -1 13 0 10 4 -4 3 -14 7 -22 8 -9 1
-13 0 -10 -4z"/>
<path d="M7796 2238 c3 -5 10 -6 15 -3 13 9 11 12 -6 12 -8 0 -12 -4 -9 -9z"/>
<path d="M6035 1961 c-3 -5 -2 -12 3 -15 5 -3 9 1 9 9 0 17 -3 19 -12 6z"/>
</g>
</svg>
